<?xml version="1.0" encoding="utf-8"?>
<!-- Generator: Adobe Illustrator 24.3.0, SVG Export Plug-In . SVG Version: 6.00 Build 0)  -->
<svg version="1.1" id="OBJECTS" xmlns="http://www.w3.org/2000/svg" xmlns:xlink="http://www.w3.org/1999/xlink" x="0px" y="0px"
	 viewBox="0 0 451.4 312" style="enable-background:new 0 0 451.4 312;" xml:space="preserve">
<style type="text/css">
	.st0{fill:#FD5177;}
	.st1{fill:#FFA19F;}
	.st2{fill:#0D0A3E;}
	.st3{fill:#9A5BFD;}
	.st4{fill:#FFFFFF;}
	.st5{fill:#832DDB;}
	.st6{fill:#EC7B7B;}
	.st7{fill:#3C3C6A;}
	.st8{fill:#00BAD9;}
	.st9{fill:#0092C4;}
	.st10{fill:#F7891B;}
	.st11{fill:#FFAE0B;}
	.st12{fill:#AEDEDF;}
	.st13{fill:#D8234F;}
	.st14{fill:#04ACB5;}
</style>
<path class="st0" d="M239,144.1h48.7c16,0,28.9,12.9,28.9,28.9v110.9l0,0H212.5l0,0V170.7C212.5,156,224.4,144.2,239,144.1z"/>
<path class="st1" d="M156.5,244c11.4,3.1,26.9-34.4,32.2-48.2c1.2-3.1,1.8-5,1.8-5l-16.3-11.2l-2.6,4.8
	C164,198.7,143,240.4,156.5,244z"/>
<path class="st2" d="M171.6,184.4l17.1,11.4c1.2-3.1,1.8-5,1.8-5l-16.3-11.2L171.6,184.4z"/>
<path class="st3" d="M202.5,178.6v0.8l-0.2,1.6l-0.9,5.9l-0.5,3l-0.2,1.5l-0.3,2.3l-1,6.8l-11.3-7.6H188l-1.4-0.9h-0.2l-3.2-2.2
	l-1.6-1.1l-11.2-7.6c2.5-4.7,5-9.3,7.5-13.7l0,0l1.9-3.2l1.7-2.7l0,0c0.2-0.2,0.3-0.5,0.4-0.7c7-11.1,13.8-19.4,19-21.5l1.2-0.4
	v39.7L202.5,178.6z"/>
<path class="st4" d="M186.4,191.9h0.1l1.4,0.9l0.8-3.9l3.8-19.4c0.1-0.4-0.1-0.9-0.6-1c0,0-0.1,0-0.1,0c-0.4-0.1-0.8,0.2-0.9,0.7
	c0,0,0,0,0,0l-3.1,15.9l-0.8,3.6L186.4,191.9z"/>
<path class="st3" d="M309.2,214.9H308l-3.6,0.3l-2.3,0.2l-10.6,0.8l-2.6,0.2h-1.2l-2.3,0.2l-7.3,0.6c-0.3-1-0.5-2-0.6-3v0.6
	l-0.2,10.5l-0.3,17.3c0,0,0.1,19.8-0.1,41H172.8c1.2-7.7,2.7-16.8,4.3-26.6l0.3-1.7c0.3-2,0.7-4,1-6s0.3-2,0.5-3s0.1-0.8,0.2-1.2
	c0.1-0.7,0.2-1.5,0.4-2.2c0.6-4.1,1.3-8.2,2-12.4c0.1-0.3,0.1-0.5,0.1-0.8c0.5-2.7,0.9-5.4,1.4-8.1c0.1-0.7,0.3-1.5,0.4-2.3
	s0.3-2,0.5-3s0.3-1.7,0.4-2.5c1.3-7.3,2.5-14.4,3.7-21.1c0.5-3.3,1.1-6.5,1.7-9.6c0-0.2,0-0.4,0.1-0.6c0-0.2,0.1-0.5,0.1-0.7
	c0-0.1,0-0.3,0.1-0.4c0-0.4,0.1-0.7,0.2-1.1c0-0.2,0.1-0.5,0.1-0.7c1.4-7.8,3.4-17.9,5.5-26.1l0.9-3.4l0.4-1.3
	c0.2-0.6,0.3-1.2,0.5-1.9c1.2-3.9,2.4-6.7,3.4-7.7l0.4-0.2l0.7-0.3l0.6-0.3l0,0c3.9-1.7,7.6-3,11.2-4.2l2-0.6l1.8-0.5l3.2-0.8
	c5.3-1.4,10.8-2.4,16.3-2.9l22.5,0.6c0,0,4.3,2.5,11.1,7.4l0,0l3,2.1c4.1,3.1,9,6.8,14.2,11.3l1.7,1.4l0,0l1.2,1.1l0,0
	c5,4.9,9,10.9,11.5,17.5c0.3,0.7,0.6,1.4,0.8,2.2c0.3,0.9,0.6,2.1,0.9,3.4l0.3,1.3c0.2,0.6,0.3,1.2,0.5,1.9
	c0.7,3.3,1.5,7.4,2.2,11.7l0.3,2.1l0,0c0.4,2.5,0.7,5,1,7.5c0,0.8,0.1,1.6,0.2,2.4c0.1,0.9,0.1,1.8,0.2,2.7s0.1,1.7,0.2,2.6
	s0.2,3.6,0.2,5.4l0,0L309.2,214.9z"/>
<path class="st5" d="M202.5,139.6l-0.4,0.2c-0.3,0.1-0.7,0-0.9-0.2l-0.3-0.3l1.2-0.4l0.6-0.3l0,0
	C202.8,138.9,202.7,139.3,202.5,139.6z"/>
<path class="st5" d="M212.6,139.8c0.3,0.4,0.9,0.4,1.3,0c0,0,0,0,0,0l1.7-1.8c0.4-0.3,0.4-0.9,0-1.3c0,0,0,0,0,0
	c-0.4-0.3-0.9-0.3-1.3,0l-1.7,1.8C212.3,138.8,212.3,139.4,212.6,139.8C212.6,139.8,212.6,139.8,212.6,139.8z"/>
<path class="st5" d="M220.9,132.5c0,0.2-0.1,0.4-0.3,0.6l-1.7,1.7c-0.4,0.4-1,0.4-1.4,0c-0.3-0.4-0.3-0.9,0-1.3l0.2-0.2L220.9,132.5
	z"/>
<path class="st5" d="M217.3,137.8l1.8,1.8c0.4,0.3,0.9,0.3,1.3,0c0.3-0.4,0.3-1,0-1.4l-1.8-1.7c-0.4-0.4-0.9-0.4-1.3,0
	C217,136.9,217,137.4,217.3,137.8L217.3,137.8z"/>
<path class="st5" d="M215.9,135.1c-0.4,0.3-1,0.3-1.4,0l-0.6-0.7l2-0.6C216.2,134.2,216.2,134.7,215.9,135.1z"/>
<path class="st5" d="M230.5,139.8c0.3,0.4,0.9,0.4,1.3,0c0,0,0,0,0,0l1.7-1.8c0.4-0.3,0.4-0.9,0-1.3c0,0,0,0,0,0
	c-0.4-0.3-0.9-0.3-1.3,0l-1.7,1.8C230.2,138.8,230.2,139.4,230.5,139.8C230.5,139.8,230.5,139.8,230.5,139.8z"/>
<path class="st5" d="M235.4,134.8c0.4,0.4,1,0.4,1.4,0l1.7-1.7c0.4-0.4,0.4-1,0-1.4c-0.4-0.3-0.9-0.3-1.3,0l-1.8,1.8
	C235.1,133.9,235.1,134.4,235.4,134.8z"/>
<path class="st5" d="M235.2,137.8l1.8,1.8c0.4,0.3,0.9,0.3,1.3,0c0.3-0.4,0.3-1,0-1.4l-1.8-1.7c-0.4-0.4-0.9-0.4-1.3,0
	C234.9,136.9,234.9,137.4,235.2,137.8L235.2,137.8z"/>
<path class="st5" d="M230.7,133.3l1.7,1.8c0.4,0.3,1.1,0.2,1.4-0.2c0.3-0.4,0.3-0.8,0-1.2L232,132c-0.4-0.4-0.9-0.4-1.3,0
	C230.4,132.4,230.4,132.9,230.7,133.3L230.7,133.3z"/>
<path class="st5" d="M248.4,139.8c0.3,0.4,0.9,0.4,1.3,0c0,0,0,0,0,0l1.7-1.8c0.4-0.3,0.4-0.9,0-1.3c0,0,0,0,0,0
	c-0.4-0.3-0.9-0.3-1.3,0l-1.7,1.8C248.1,138.8,248.1,139.4,248.4,139.8C248.4,139.8,248.4,139.8,248.4,139.8z"/>
<path class="st5" d="M253.3,134.8c0.4,0.4,1,0.4,1.4,0l1.7-1.7c0.4-0.4,0.4-1,0-1.4c-0.4-0.3-0.9-0.3-1.3,0l-1.8,1.8
	C253,133.9,253,134.4,253.3,134.8z"/>
<path class="st5" d="M253.1,137.8l1.7,1.8c0.3,0.4,1,0.5,1.4,0.2s0.5-1,0.2-1.4c-0.1-0.1-0.1-0.1-0.2-0.2l-1.8-1.7
	c-0.4-0.4-0.9-0.4-1.3,0C252.8,136.9,252.8,137.4,253.1,137.8L253.1,137.8z"/>
<path class="st5" d="M248.6,133.3l1.7,1.8c0.3,0.4,1,0.5,1.4,0.2s0.5-1,0.2-1.4c-0.1-0.1-0.1-0.1-0.2-0.2l-1.8-1.7
	c-0.4-0.4-0.9-0.4-1.3,0C248.3,132.4,248.3,132.9,248.6,133.3L248.6,133.3z"/>
<path class="st5" d="M266.2,139.8c0.4,0.4,1,0.4,1.4,0l1.7-1.8c0.4-0.3,0.4-0.9,0-1.3c0,0,0,0,0,0c-0.4-0.3-0.9-0.3-1.3,0l-1.8,1.8
	C265.9,138.9,265.9,139.4,266.2,139.8z"/>
<path class="st5" d="M273.8,139.7c-0.3,0.2-0.8,0.2-1.1-0.1l-1.7-1.8l-0.2-0.2L273.8,139.7z"/>
<path class="st5" d="M194.7,153.6c0.4,0.3,0.9,0.3,1.3,0l1.7-1.8c0.4-0.4,0.4-0.9,0-1.3s-0.9-0.4-1.3,0l-1.7,1.7
	C194.3,152.6,194.3,153.2,194.7,153.6z"/>
<path class="st5" d="M199.6,148.6c0.4,0.3,1,0.3,1.4,0l1.7-1.8c0.4-0.4,0.4-0.9,0-1.3s-0.9-0.4-1.3,0l-1.8,1.7
	C199.3,147.6,199.3,148.2,199.6,148.6z"/>
<path class="st5" d="M199.4,151.6l1.8,1.7c0.3,0.4,0.9,0.4,1.3,0c0,0,0,0,0,0c0.3-0.4,0.3-0.9,0-1.3l-1.8-1.8
	c-0.4-0.3-0.9-0.3-1.3,0C199,150.6,199,151.2,199.4,151.6z"/>
<path class="st5" d="M194.9,147.1l1.7,1.7c0.4,0.4,1,0.4,1.4,0c0.3-0.4,0.3-0.9,0-1.3l-1.8-1.8c-0.4-0.3-0.9-0.3-1.3,0
	C194.5,146.1,194.5,146.7,194.9,147.1C194.9,147.1,194.9,147.1,194.9,147.1z"/>
<path class="st5" d="M212.6,153.6c0.4,0.3,0.9,0.3,1.3,0l1.7-1.8c0.4-0.4,0.4-0.9,0-1.3c-0.4-0.4-0.9-0.4-1.3,0l0,0l-1.7,1.7
	C212.2,152.6,212.2,153.2,212.6,153.6z"/>
<path class="st5" d="M217.5,148.6c0.4,0.3,1,0.3,1.4,0l1.7-1.8c0.4-0.4,0.4-0.9,0-1.3c-0.4-0.4-0.9-0.4-1.3,0l0,0l-1.8,1.7
	C217.2,147.6,217.2,148.2,217.5,148.6z"/>
<path class="st5" d="M217.3,151.6l1.8,1.7c0.3,0.4,0.9,0.4,1.3,0c0,0,0,0,0,0c0.3-0.4,0.3-0.9,0-1.3l-1.8-1.8
	c-0.4-0.3-0.9-0.3-1.3,0C216.9,150.6,216.9,151.2,217.3,151.6z"/>
<path class="st5" d="M212.8,147.1l1.7,1.7c0.4,0.4,1,0.4,1.4,0c0.3-0.4,0.3-0.9,0-1.3l-1.8-1.8c-0.4-0.3-0.9-0.3-1.3,0
	C212.5,146.1,212.5,146.7,212.8,147.1z"/>
<path class="st5" d="M230.5,153.6c0.4,0.3,0.9,0.3,1.3,0l1.7-1.8c0.4-0.4,0.4-0.9,0-1.3c-0.4-0.4-0.9-0.4-1.3,0l0,0l-1.7,1.7
	C230.1,152.6,230.1,153.2,230.5,153.6z"/>
<path class="st5" d="M235.4,148.6c0.4,0.3,1,0.3,1.4,0l1.7-1.8c0.4-0.4,0.4-0.9,0-1.3c-0.4-0.4-0.9-0.4-1.3,0l-1.8,1.7
	C235.1,147.6,235.1,148.2,235.4,148.6z"/>
<path class="st5" d="M235.2,151.6l1.8,1.7c0.3,0.4,0.9,0.4,1.3,0c0,0,0,0,0,0c0.3-0.4,0.3-0.9,0-1.3l-1.8-1.8
	c-0.4-0.3-0.9-0.3-1.3,0C234.8,150.6,234.8,151.2,235.2,151.6z"/>
<path class="st5" d="M230.7,147.1l1.7,1.7c0.4,0.4,1,0.4,1.4,0c0.3-0.4,0.3-0.9,0-1.3l-1.8-1.8c-0.4-0.3-0.9-0.3-1.3,0
	C230.4,146.1,230.4,146.7,230.7,147.1z"/>
<path class="st5" d="M248.4,153.6c0.4,0.3,0.9,0.3,1.3,0l1.7-1.8c0.4-0.4,0.4-0.9,0-1.3c-0.4-0.4-0.9-0.4-1.3,0l0,0l-1.7,1.7
	C248,152.6,248,153.2,248.4,153.6z"/>
<path class="st5" d="M253.3,148.6c0.4,0.3,1,0.3,1.4,0l1.7-1.8c0.4-0.4,0.4-0.9,0-1.3c-0.4-0.4-0.9-0.4-1.3,0l-1.8,1.7
	C253,147.6,253,148.2,253.3,148.6z"/>
<path class="st5" d="M253.1,151.6l1.7,1.7c0.4,0.4,1,0.4,1.4,0c0.3-0.4,0.3-0.9,0-1.3l-1.8-1.8c-0.4-0.3-0.9-0.3-1.3,0
	C252.8,150.6,252.8,151.2,253.1,151.6z"/>
<path class="st5" d="M248.6,147.1l1.7,1.7c0.4,0.4,1,0.4,1.4,0c0.3-0.4,0.3-0.9,0-1.3l-1.8-1.8c-0.4-0.3-0.9-0.3-1.3,0
	C248.3,146.1,248.3,146.7,248.6,147.1z"/>
<path class="st5" d="M266.2,153.6c0.4,0.3,1,0.3,1.4,0l1.7-1.8c0.4-0.4,0.4-0.9,0-1.3c-0.4-0.4-0.9-0.4-1.3,0l0,0l-1.8,1.7
	C265.9,152.6,265.9,153.2,266.2,153.6z"/>
<path class="st5" d="M271.2,148.6c0.4,0.3,0.9,0.3,1.3,0l1.8-1.8c0.4-0.4,0.4-0.9,0-1.3c-0.4-0.4-0.9-0.4-1.3,0l-1.8,1.7
	C270.9,147.6,270.9,148.2,271.2,148.6z"/>
<path class="st5" d="M271,151.6l1.7,1.7c0.4,0.4,1,0.4,1.4,0c0.3-0.4,0.3-0.9,0-1.3l-1.8-1.8c-0.4-0.3-0.9-0.3-1.3,0
	C270.7,150.6,270.7,151.2,271,151.6z"/>
<path class="st5" d="M266.5,147.1l1.7,1.7c0.4,0.4,1,0.4,1.4,0c0.3-0.4,0.3-0.9,0-1.3l-1.8-1.8c-0.4-0.3-0.9-0.3-1.3,0
	C266.2,146.1,266.2,146.7,266.5,147.1z"/>
<path class="st5" d="M284.1,153.6c0.4,0.3,1,0.3,1.4,0l1.7-1.8c0.4-0.4,0.4-0.9,0-1.3c-0.4-0.4-0.9-0.4-1.3,0l0,0l-1.8,1.7
	C283.8,152.6,283.8,153.2,284.1,153.6z"/>
<path class="st5" d="M290.9,153.5l-0.3-0.2l-0.9-0.9L290.9,153.5z"/>
<path class="st5" d="M179.8,165.6l-1.7,1.7h-0.2l1.9-3.2l0,0C180.2,164.5,180.3,165.1,179.8,165.6
	C179.9,165.5,179.9,165.6,179.8,165.6z"/>
<path class="st5" d="M184.8,160.6l-1.7,1.7c-0.4,0.4-1,0.4-1.4,0c-0.2-0.2-0.3-0.5-0.2-0.8l0,0c0.2-0.2,0.3-0.5,0.4-0.7l1.6-1.5
	c0.4-0.4,0.9-0.4,1.3,0S185.2,160.2,184.8,160.6L184.8,160.6z"/>
<path class="st5" d="M181.5,165.3l1.8,1.8c0.4,0.3,0.9,0.3,1.3,0c0.4-0.4,0.4-1,0-1.4l-1.8-1.7c-0.3-0.4-0.9-0.4-1.3,0c0,0,0,0,0,0
	C181.2,164.4,181.2,164.9,181.5,165.3z"/>
<path class="st5" d="M194.7,167.3c0.3,0.4,0.9,0.4,1.3,0c0,0,0,0,0,0l1.7-1.7c0.4-0.4,0.4-1,0-1.4c-0.4-0.3-0.9-0.3-1.3,0l-1.7,1.8
	C194.4,166.3,194.4,166.9,194.7,167.3C194.7,167.3,194.7,167.3,194.7,167.3z"/>
<path class="st5" d="M199.6,162.3c0.4,0.4,1,0.4,1.4,0l1.7-1.7c0.4-0.4,0.4-0.9,0-1.3s-0.9-0.4-1.3,0l-1.8,1.7
	C199.3,161.4,199.3,161.9,199.6,162.3z"/>
<path class="st5" d="M199.4,165.3l1.8,1.8c0.4,0.3,0.9,0.3,1.3,0c0.3-0.4,0.3-1,0-1.4l-1.8-1.7c-0.4-0.4-0.9-0.4-1.3,0
	S199.1,164.9,199.4,165.3L199.4,165.3L199.4,165.3z"/>
<path class="st5" d="M194.9,160.8l1.7,1.8c0.4,0.3,1.1,0.2,1.4-0.2c0.3-0.4,0.3-0.8,0-1.2l-1.8-1.7c-0.4-0.4-0.9-0.4-1.3,0
	S194.6,160.4,194.9,160.8L194.9,160.8z"/>
<path class="st5" d="M212.6,167.3c0.3,0.4,0.9,0.4,1.3,0c0,0,0,0,0,0l1.7-1.7c0.4-0.4,0.4-1,0-1.4c-0.4-0.3-0.9-0.3-1.3,0l-1.7,1.8
	C212.3,166.3,212.3,166.9,212.6,167.3C212.6,167.3,212.6,167.3,212.6,167.3z"/>
<path class="st5" d="M217.5,162.3c0.4,0.4,1,0.4,1.4,0l1.7-1.7c0.4-0.4,0.4-0.9,0-1.3c-0.4-0.4-0.9-0.4-1.3,0l-1.8,1.7
	C217.2,161.4,217.2,161.9,217.5,162.3z"/>
<path class="st5" d="M217.3,165.3l1.8,1.8c0.4,0.3,0.9,0.3,1.3,0c0.3-0.4,0.3-1,0-1.4l-1.8-1.7c-0.4-0.4-0.9-0.4-1.3,0
	C217,164.4,217,164.9,217.3,165.3L217.3,165.3z"/>
<path class="st5" d="M212.8,160.8l1.7,1.8c0.4,0.3,1.1,0.2,1.4-0.2c0.3-0.4,0.3-0.8,0-1.2l-1.8-1.7c-0.4-0.4-0.9-0.4-1.3,0
	C212.5,159.9,212.5,160.4,212.8,160.8L212.8,160.8z"/>
<path class="st5" d="M230.5,167.3c0.3,0.4,0.9,0.4,1.3,0c0,0,0,0,0,0l1.7-1.7c0.4-0.4,0.4-1,0-1.4c-0.4-0.3-0.9-0.3-1.3,0l-1.7,1.8
	C230.2,166.3,230.2,166.9,230.5,167.3C230.5,167.3,230.5,167.3,230.5,167.3z"/>
<path class="st5" d="M235.4,162.3c0.4,0.4,1,0.4,1.4,0l1.7-1.7c0.4-0.4,0.4-0.9,0-1.3c-0.4-0.4-0.9-0.4-1.3,0l-1.8,1.7
	C235.1,161.4,235.1,161.9,235.4,162.3z"/>
<path class="st5" d="M235.2,165.3l1.8,1.8c0.4,0.3,0.9,0.3,1.3,0c0.3-0.4,0.3-1,0-1.4l-1.8-1.7c-0.4-0.4-0.9-0.4-1.3,0
	C234.9,164.4,234.9,164.9,235.2,165.3L235.2,165.3z"/>
<path class="st5" d="M230.7,160.8l1.7,1.8c0.4,0.3,1.1,0.2,1.4-0.2c0.3-0.4,0.3-0.8,0-1.2l-1.8-1.7c-0.4-0.4-0.9-0.4-1.3,0
	C230.4,159.9,230.4,160.4,230.7,160.8L230.7,160.8z"/>
<path class="st5" d="M248.4,167.3c0.3,0.4,0.9,0.4,1.3,0c0,0,0,0,0,0l1.7-1.7c0.4-0.4,0.4-1,0-1.4c-0.4-0.3-0.9-0.3-1.3,0l-1.7,1.8
	C248.1,166.3,248.1,166.9,248.4,167.3C248.4,167.3,248.4,167.3,248.4,167.3z"/>
<path class="st5" d="M253.3,162.3c0.4,0.4,1,0.4,1.4,0l1.7-1.7c0.4-0.4,0.4-0.9,0-1.3c-0.4-0.4-0.9-0.4-1.3,0l-1.8,1.7
	C253,161.4,253,161.9,253.3,162.3z"/>
<path class="st5" d="M253.1,165.3l1.7,1.8c0.3,0.4,1,0.5,1.4,0.2s0.5-1,0.2-1.4c-0.1-0.1-0.1-0.1-0.2-0.2l-1.8-1.7
	c-0.4-0.4-0.9-0.4-1.3,0C252.8,164.4,252.8,164.9,253.1,165.3z"/>
<path class="st5" d="M248.6,160.8l1.7,1.8c0.3,0.4,1,0.5,1.4,0.2s0.5-1,0.2-1.4c-0.1-0.1-0.1-0.1-0.2-0.2l-1.8-1.7
	c-0.4-0.4-0.9-0.4-1.3,0C248.3,159.9,248.3,160.4,248.6,160.8L248.6,160.8z"/>
<path class="st5" d="M266.2,167.3c0.4,0.4,1,0.4,1.4,0l1.7-1.7c0.4-0.4,0.4-1,0-1.4c-0.4-0.3-0.9-0.3-1.3,0l-1.8,1.8
	C265.9,166.4,265.9,166.9,266.2,167.3z"/>
<path class="st5" d="M271.2,162.3c0.3,0.4,0.9,0.4,1.3,0c0,0,0,0,0,0l1.8-1.7c0.4-0.4,0.4-0.9,0-1.3c-0.4-0.4-0.9-0.4-1.3,0
	l-1.8,1.7C270.9,161.4,270.9,161.9,271.2,162.3z"/>
<path class="st5" d="M271,165.3l1.7,1.8c0.4,0.3,1.1,0.2,1.4-0.2c0.3-0.4,0.3-0.8,0-1.2l-1.8-1.7c-0.4-0.4-0.9-0.4-1.3,0
	C270.7,164.4,270.7,164.9,271,165.3L271,165.3z"/>
<path class="st5" d="M266.5,160.8l1.7,1.8c0.4,0.3,1.1,0.2,1.4-0.2c0.3-0.4,0.3-0.8,0-1.2l-1.8-1.7c-0.4-0.4-0.9-0.4-1.3,0
	C266.2,159.9,266.2,160.4,266.5,160.8L266.5,160.8z"/>
<path class="st5" d="M284.1,167.3c0.4,0.4,1,0.4,1.4,0l1.7-1.7c0.4-0.4,0.4-1,0-1.4c-0.4-0.3-0.9-0.3-1.3,0l-1.8,1.8
	C283.8,166.4,283.8,166.9,284.1,167.3z"/>
<path class="st5" d="M289.1,162.3c0.3,0.4,0.9,0.4,1.3,0c0,0,0,0,0,0l1.8-1.7c0.4-0.4,0.4-0.9,0-1.3c-0.4-0.4-0.9-0.4-1.3,0
	l-1.8,1.7C288.8,161.4,288.8,161.9,289.1,162.3z"/>
<path class="st5" d="M288.9,165.3l1.7,1.8c0.4,0.3,1.1,0.2,1.4-0.2c0.3-0.4,0.3-0.8,0-1.2l-1.8-1.7c-0.4-0.4-0.9-0.4-1.3,0
	C288.6,164.4,288.6,164.9,288.9,165.3L288.9,165.3z"/>
<path class="st5" d="M284.4,160.8l1.7,1.8c0.4,0.3,0.9,0.3,1.3,0c0.4-0.4,0.4-1,0-1.4l-1.7-1.7c-0.4-0.4-0.9-0.4-1.3,0
	C284.1,159.9,284.1,160.4,284.4,160.8L284.4,160.8z"/>
<path class="st5" d="M176.8,181.1c0.4,0.3,0.9,0.3,1.3,0l1.7-1.8c0.4-0.4,0.4-0.9,0-1.3s-0.9-0.4-1.3,0l-1.7,1.7
	C176.4,180.1,176.4,180.7,176.8,181.1z"/>
<path class="st5" d="M181.7,176.1c0.4,0.3,1,0.3,1.4,0l1.7-1.8c0.4-0.4,0.4-0.9,0-1.3s-0.9-0.4-1.3,0l-1.8,1.8
	C181.4,175.2,181.4,175.7,181.7,176.1z"/>
<path class="st5" d="M181.5,179.1l1.8,1.7c0.4,0.4,0.9,0.4,1.3,0s0.4-0.9,0-1.3l-1.8-1.8c-0.4-0.3-0.9-0.3-1.3,0
	C181.2,178.1,181.2,178.7,181.5,179.1z"/>
<path class="st5" d="M177,174.6l1.8,1.7c0.3,0.4,0.9,0.4,1.3,0c0,0,0,0,0,0c0.3-0.4,0.3-0.9,0-1.3l-1.8-1.8c-0.4-0.3-0.9-0.3-1.3,0
	C176.6,173.6,176.6,174.2,177,174.6z"/>
<path class="st5" d="M194.7,181.1c0.4,0.3,0.9,0.3,1.3,0l1.7-1.8c0.4-0.4,0.4-0.9,0-1.3s-0.9-0.4-1.3,0l-1.7,1.7
	C194.3,180.1,194.3,180.7,194.7,181.1z"/>
<path class="st5" d="M199.6,176.1c0.4,0.3,1,0.3,1.4,0l1.7-1.8c0.4-0.4,0.4-0.9,0-1.3c-0.4-0.4-0.9-0.4-1.3,0l-1.8,1.8
	C199.3,175.2,199.3,175.7,199.6,176.1z"/>
<path class="st5" d="M199.4,179.1l1.8,1.7c0.3,0.4,0.9,0.4,1.3,0c0,0,0,0,0,0c0.3-0.4,0.3-0.9,0-1.3l-1.8-1.8
	c-0.4-0.3-0.9-0.3-1.3,0C199,178.1,199,178.7,199.4,179.1z"/>
<path class="st5" d="M194.9,174.6l1.7,1.7c0.4,0.4,1,0.4,1.4,0c0.3-0.4,0.3-0.9,0-1.3l-1.8-1.8c-0.4-0.3-0.9-0.3-1.3,0
	C194.5,173.6,194.5,174.2,194.9,174.6C194.9,174.6,194.9,174.6,194.9,174.6z"/>
<path class="st5" d="M212.6,181.1c0.4,0.3,0.9,0.3,1.3,0l1.7-1.8c0.4-0.4,0.4-0.9,0-1.3c-0.4-0.4-0.9-0.4-1.3,0l0,0l-1.7,1.7
	C212.2,180.1,212.2,180.7,212.6,181.1z"/>
<path class="st5" d="M217.5,176.1c0.4,0.3,1,0.3,1.4,0l1.7-1.8c0.4-0.4,0.4-0.9,0-1.3c-0.4-0.4-0.9-0.4-1.3,0l-1.8,1.8
	C217.2,175.2,217.2,175.7,217.5,176.1z"/>
<path class="st5" d="M217.3,179.1l1.8,1.7c0.3,0.4,0.9,0.4,1.3,0c0,0,0,0,0,0c0.3-0.4,0.3-0.9,0-1.3l-1.8-1.8
	c-0.4-0.3-0.9-0.3-1.3,0C216.9,178.1,216.9,178.7,217.3,179.1z"/>
<path class="st5" d="M212.8,174.6l1.7,1.7c0.4,0.4,1,0.4,1.4,0c0.3-0.4,0.3-0.9,0-1.3l-1.8-1.8c-0.4-0.3-0.9-0.3-1.3,0
	C212.5,173.6,212.5,174.2,212.8,174.6z"/>
<path class="st5" d="M230.5,181.1c0.4,0.3,0.9,0.3,1.3,0l1.7-1.8c0.4-0.4,0.4-0.9,0-1.3c-0.4-0.4-0.9-0.4-1.3,0l-1.7,1.7
	C230.1,180.1,230.1,180.7,230.5,181.1z"/>
<path class="st5" d="M235.4,176.1c0.4,0.3,1,0.3,1.4,0l1.7-1.8c0.4-0.4,0.4-0.9,0-1.3c-0.4-0.4-0.9-0.4-1.3,0l-1.8,1.8
	C235.1,175.2,235.1,175.7,235.4,176.1z"/>
<path class="st5" d="M235.2,179.1l1.8,1.7c0.3,0.4,0.9,0.4,1.3,0c0,0,0,0,0,0c0.3-0.4,0.3-0.9,0-1.3l-1.8-1.8
	c-0.4-0.3-0.9-0.3-1.3,0C234.8,178.1,234.8,178.7,235.2,179.1z"/>
<path class="st5" d="M230.7,174.6l1.7,1.7c0.4,0.4,1,0.4,1.4,0c0.3-0.4,0.3-0.9,0-1.3l-1.8-1.8c-0.4-0.3-0.9-0.3-1.3,0
	C230.4,173.6,230.4,174.2,230.7,174.6z"/>
<path class="st5" d="M248.4,181.1c0.4,0.3,0.9,0.3,1.3,0l1.7-1.8c0.4-0.4,0.4-0.9,0-1.3c-0.4-0.4-0.9-0.4-1.3,0l-1.7,1.7
	C248,180.1,248,180.7,248.4,181.1z"/>
<path class="st5" d="M253.3,176.1c0.4,0.3,1,0.3,1.4,0l1.7-1.8c0.4-0.4,0.4-0.9,0-1.3c-0.4-0.4-0.9-0.4-1.3,0l-1.8,1.8
	C253,175.2,253,175.7,253.3,176.1z"/>
<path class="st5" d="M253.1,179.1l1.7,1.7c0.4,0.4,1,0.4,1.4,0c0.3-0.4,0.3-0.9,0-1.3l-1.8-1.8c-0.4-0.3-0.9-0.3-1.3,0
	C252.8,178.1,252.8,178.7,253.1,179.1z"/>
<path class="st5" d="M248.6,174.6l1.7,1.7c0.4,0.4,1,0.4,1.4,0c0.3-0.4,0.3-0.9,0-1.3l-1.8-1.8c-0.4-0.3-0.9-0.3-1.3,0
	C248.3,173.6,248.3,174.2,248.6,174.6z"/>
<path class="st5" d="M266.2,181.1c0.4,0.3,1,0.3,1.4,0l1.7-1.8c0.4-0.4,0.4-0.9,0-1.3c-0.4-0.4-0.9-0.4-1.3,0l0,0l-1.8,1.7
	C265.9,180.1,265.9,180.7,266.2,181.1z"/>
<path class="st5" d="M271.2,176.1c0.4,0.3,0.9,0.3,1.3,0l1.8-1.8c0.4-0.4,0.4-0.9,0-1.3c-0.4-0.4-0.9-0.4-1.3,0l-1.8,1.8
	C270.9,175.2,270.9,175.7,271.2,176.1z"/>
<path class="st5" d="M271,179.1l1.7,1.7c0.4,0.4,1,0.4,1.4,0c0.3-0.4,0.3-0.9,0-1.3l-1.8-1.8c-0.4-0.3-0.9-0.3-1.3,0
	C270.7,178.1,270.7,178.7,271,179.1z"/>
<path class="st5" d="M266.5,174.6l1.7,1.7c0.4,0.4,1,0.4,1.4,0c0.3-0.4,0.3-0.9,0-1.3l-1.8-1.8c-0.4-0.3-0.9-0.3-1.3,0
	C266.2,173.6,266.2,174.2,266.5,174.6z"/>
<path class="st5" d="M284.1,181.1c0.4,0.3,1,0.3,1.4,0l1.7-1.8c0.4-0.4,0.4-0.9,0-1.3c-0.4-0.4-0.9-0.4-1.3,0l-1.8,1.7
	C283.8,180.1,283.8,180.7,284.1,181.1z"/>
<path class="st5" d="M289.1,176.1c0.4,0.3,0.9,0.3,1.3,0l1.8-1.8c0.4-0.4,0.4-0.9,0-1.3c-0.4-0.4-0.9-0.4-1.3,0l-1.8,1.8
	C288.8,175.2,288.8,175.7,289.1,176.1z"/>
<path class="st5" d="M288.9,179.1l1.7,1.7c0.4,0.4,1,0.4,1.4,0c0.3-0.4,0.3-0.9,0-1.3l-1.8-1.8c-0.4-0.3-0.9-0.3-1.3,0
	C288.6,178.1,288.6,178.7,288.9,179.1z"/>
<path class="st5" d="M284.4,174.6l1.7,1.7c0.4,0.4,0.9,0.4,1.3,0c0.4-0.4,0.4-0.9,0-1.3l-1.7-1.8c-0.4-0.3-0.9-0.3-1.3,0
	C284,173.6,284,174.2,284.4,174.6z"/>
<path class="st5" d="M304.9,179.6l-1.5,1.5c-0.4,0.3-1.1,0.2-1.4-0.2c-0.3-0.4-0.3-0.8,0-1.2l1.8-1.7l0.6-0.3
	C304.6,178.3,304.7,178.9,304.9,179.6z"/>
<path class="st5" d="M304.1,176.4H304l-1.7-1.7c-0.4-0.2-0.6-0.8-0.4-1.2s0.8-0.6,1.2-0.4C303.5,173.9,303.8,175.1,304.1,176.4z"/>
<path class="st5" d="M184.8,188.1l-1.6,1.6l-1.6-1.1h0.1l1.8-1.7c0.4-0.4,0.9-0.4,1.3,0s0.4,0.9,0,1.3V188.1z"/>
<path class="st5" d="M194.7,194.8c0.3,0.4,0.9,0.4,1.3,0c0,0,0,0,0,0l1.7-1.7c0.4-0.4,0.4-1,0-1.4c-0.4-0.3-0.9-0.3-1.3,0l-1.7,1.8
	C194.4,193.8,194.4,194.4,194.7,194.8C194.7,194.8,194.7,194.8,194.7,194.8z"/>
<path class="st5" d="M199.6,189.8c0.4,0.4,1,0.4,1.4,0l1.7-1.7c0.4-0.4,0.4-0.9,0-1.3s-0.9-0.4-1.3,0l-1.8,1.7
	C199.3,188.9,199.3,189.4,199.6,189.8z"/>
<path class="st5" d="M199.4,192.8l1.8,1.8c0.4,0.4,0.9,0.4,1.3,0s0.4-0.9,0-1.3l0,0l-1.8-1.8c-0.4-0.4-0.9-0.4-1.3,0
	S199.1,192.4,199.4,192.8z"/>
<path class="st5" d="M194.9,188.3l1.7,1.8c0.4,0.3,1.1,0.2,1.4-0.2c0.3-0.4,0.3-0.8,0-1.2l-1.8-1.7c-0.4-0.4-0.9-0.4-1.3,0
	S194.6,187.9,194.9,188.3L194.9,188.3z"/>
<path class="st5" d="M212.6,194.8c0.3,0.4,0.9,0.4,1.3,0c0,0,0,0,0,0l1.7-1.7c0.4-0.4,0.4-1,0-1.4c-0.4-0.3-0.9-0.3-1.3,0l-1.7,1.8
	C212.3,193.8,212.3,194.4,212.6,194.8C212.6,194.8,212.6,194.8,212.6,194.8z"/>
<path class="st5" d="M217.5,189.8c0.4,0.4,1,0.4,1.4,0l1.7-1.7c0.4-0.4,0.4-0.9,0-1.3c-0.4-0.4-0.9-0.4-1.3,0l-1.8,1.7
	C217.2,188.9,217.2,189.4,217.5,189.8z"/>
<path class="st5" d="M217.3,192.8l1.8,1.8c0.4,0.4,0.9,0.4,1.3,0c0.4-0.4,0.4-0.9,0-1.3l-1.8-1.8c-0.4-0.4-0.9-0.4-1.3,0
	C217,191.9,217,192.4,217.3,192.8z"/>
<path class="st5" d="M212.8,188.3l1.7,1.8c0.4,0.3,1.1,0.2,1.4-0.2c0.3-0.4,0.3-0.8,0-1.2l-1.8-1.7c-0.4-0.4-0.9-0.4-1.3,0
	C212.5,187.4,212.5,187.9,212.8,188.3L212.8,188.3z"/>
<path class="st5" d="M230.5,194.8c0.3,0.4,0.9,0.4,1.3,0c0,0,0,0,0,0l1.7-1.7c0.4-0.4,0.4-1,0-1.4c-0.4-0.3-0.9-0.3-1.3,0l-1.7,1.8
	C230.2,193.8,230.2,194.4,230.5,194.8C230.5,194.8,230.5,194.8,230.5,194.8z"/>
<path class="st5" d="M235.4,189.8c0.4,0.4,1,0.4,1.4,0l1.7-1.7c0.4-0.4,0.4-0.9,0-1.3c-0.4-0.4-0.9-0.4-1.3,0l-1.8,1.7
	C235.1,188.9,235.1,189.4,235.4,189.8z"/>
<path class="st5" d="M235.2,192.8l1.8,1.8c0.4,0.4,0.9,0.4,1.3,0c0.4-0.4,0.4-0.9,0-1.3l-1.8-1.8c-0.4-0.4-0.9-0.4-1.3,0
	C234.9,191.9,234.9,192.4,235.2,192.8L235.2,192.8z"/>
<path class="st5" d="M230.7,188.3l1.7,1.8c0.4,0.3,1.1,0.2,1.4-0.2c0.3-0.4,0.3-0.8,0-1.2L232,187c-0.4-0.4-0.9-0.4-1.3,0
	C230.4,187.4,230.4,187.9,230.7,188.3L230.7,188.3z"/>
<path class="st5" d="M248.4,194.8c0.3,0.4,0.9,0.4,1.3,0c0,0,0,0,0,0l1.7-1.7c0.4-0.4,0.4-1,0-1.4c-0.4-0.3-0.9-0.3-1.3,0l-1.7,1.8
	C248.1,193.8,248.1,194.4,248.4,194.8C248.4,194.8,248.4,194.8,248.4,194.8z"/>
<path class="st5" d="M253.3,189.8c0.4,0.4,1,0.4,1.4,0l1.7-1.7c0.4-0.4,0.4-0.9,0-1.3c-0.4-0.4-0.9-0.4-1.3,0l-1.8,1.7
	C253,188.9,253,189.4,253.3,189.8z"/>
<path class="st5" d="M253.1,192.8l1.7,1.8c0.4,0.3,1,0.3,1.4,0c0.3-0.4,0.3-0.9,0-1.3l-1.8-1.8c-0.4-0.4-0.9-0.4-1.3,0
	C252.8,191.9,252.8,192.4,253.1,192.8L253.1,192.8L253.1,192.8z"/>
<path class="st5" d="M248.6,188.3l1.7,1.8c0.3,0.4,1,0.5,1.4,0.2s0.5-1,0.2-1.4c-0.1-0.1-0.1-0.1-0.2-0.2l-1.8-1.7
	c-0.4-0.4-0.9-0.4-1.3,0C248.3,187.4,248.3,187.9,248.6,188.3L248.6,188.3z"/>
<path class="st5" d="M266.2,194.8c0.4,0.4,1,0.4,1.4,0l1.7-1.7c0.4-0.4,0.4-1,0-1.4c-0.4-0.3-0.9-0.3-1.3,0l-1.8,1.8
	C265.9,193.9,265.9,194.4,266.2,194.8z"/>
<path class="st5" d="M271.2,189.8c0.3,0.4,0.9,0.4,1.3,0c0,0,0,0,0,0l1.8-1.7c0.4-0.4,0.4-0.9,0-1.3c-0.4-0.4-0.9-0.4-1.3,0
	l-1.8,1.7C270.9,188.9,270.9,189.4,271.2,189.8z"/>
<path class="st5" d="M271,192.8l1.7,1.8c0.4,0.3,1,0.3,1.4,0c0.3-0.4,0.3-0.9,0-1.3l-1.8-1.8c-0.4-0.4-0.9-0.4-1.3,0
	C270.7,191.9,270.7,192.4,271,192.8L271,192.8z"/>
<path class="st5" d="M266.5,188.3l1.7,1.8c0.4,0.3,1.1,0.2,1.4-0.2c0.3-0.4,0.3-0.8,0-1.2l-1.8-1.7c-0.4-0.4-0.9-0.4-1.3,0
	C266.2,187.4,266.2,187.9,266.5,188.3L266.5,188.3z"/>
<path class="st5" d="M284.1,194.8c0.4,0.4,1,0.4,1.4,0l1.7-1.7c0.4-0.4,0.4-1,0-1.4c-0.4-0.3-0.9-0.3-1.3,0l-1.8,1.8
	C283.8,193.9,283.8,194.4,284.1,194.8z"/>
<path class="st5" d="M289.1,189.8c0.3,0.4,0.9,0.4,1.3,0c0,0,0,0,0,0l1.8-1.7c0.4-0.4,0.4-0.9,0-1.3c-0.4-0.4-0.9-0.4-1.3,0
	l-1.8,1.7C288.8,188.9,288.8,189.4,289.1,189.8z"/>
<path class="st5" d="M288.9,192.8l1.7,1.8c0.4,0.3,1,0.3,1.4,0c0.3-0.4,0.3-0.9,0-1.3l-1.8-1.8c-0.4-0.4-0.9-0.4-1.3,0
	C288.6,191.9,288.6,192.4,288.9,192.8L288.9,192.8z"/>
<path class="st5" d="M284.4,188.3l1.7,1.8c0.4,0.3,0.9,0.3,1.3,0c0.4-0.4,0.4-1,0-1.4l-1.7-1.7c-0.4-0.4-0.9-0.4-1.3,0
	C284.1,187.4,284.1,187.9,284.4,188.3L284.4,188.3z"/>
<path class="st5" d="M302,194.8c0.4,0.4,1,0.4,1.4,0l1.7-1.7c0.4-0.4,0.4-1,0-1.4c-0.4-0.3-0.9-0.3-1.3,0l-1.8,1.8
	C301.7,193.9,301.7,194.4,302,194.8z"/>
<path class="st5" d="M307.4,193.4l-0.6-0.6c-0.4-0.3-0.4-0.9,0-1.3c0,0,0,0,0,0l0.3-0.2L307.4,193.4z"/>
<path class="st5" d="M302.3,188.3l1.7,1.8c0.4,0.3,0.9,0.3,1.3,0c0.4-0.4,0.4-1,0-1.4l-1.7-1.7c-0.4-0.4-0.9-0.4-1.3,0
	C302,187.4,302,187.9,302.3,188.3L302.3,188.3z"/>
<path class="st5" d="M194.7,208.6c0.4,0.3,0.9,0.3,1.3,0l1.7-1.8c0.4-0.4,0.4-0.9,0-1.3s-0.9-0.4-1.3,0l-1.7,1.7
	C194.3,207.6,194.3,208.2,194.7,208.6z"/>
<path class="st5" d="M199.6,203.6c0.4,0.3,1,0.3,1.4,0l1.7-1.8c0.4-0.4,0.4-0.9,0-1.3s-0.9-0.4-1.3,0l-1.8,1.8
	C199.3,202.7,199.3,203.2,199.6,203.6z"/>
<path class="st5" d="M199.4,206.6l1.8,1.7c0.3,0.4,0.9,0.4,1.3,0c0,0,0,0,0,0c0.3-0.4,0.3-0.9,0-1.3l-1.8-1.7
	c-0.4-0.4-0.9-0.4-1.3,0S199.1,206.2,199.4,206.6L199.4,206.6z"/>
<path class="st5" d="M194.9,202.1l1.7,1.7c0.4,0.4,1,0.4,1.4,0c0.3-0.4,0.3-0.9,0-1.3l-1.8-1.8c-0.4-0.3-0.9-0.3-1.3,0
	C194.5,201.1,194.5,201.7,194.9,202.1C194.9,202.1,194.9,202.1,194.9,202.1z"/>
<path class="st5" d="M212.6,208.6c0.4,0.3,0.9,0.3,1.3,0l1.7-1.8c0.4-0.4,0.4-0.9,0-1.3c-0.4-0.4-0.9-0.4-1.3,0l-1.7,1.7
	C212.2,207.6,212.2,208.2,212.6,208.6z"/>
<path class="st5" d="M217.5,203.6c0.4,0.3,1,0.3,1.4,0l1.7-1.8c0.4-0.4,0.4-0.9,0-1.3c-0.4-0.4-0.9-0.4-1.3,0l-1.8,1.8
	C217.2,202.7,217.2,203.2,217.5,203.6z"/>
<path class="st5" d="M217.3,206.6l1.8,1.7c0.3,0.4,0.9,0.4,1.3,0c0,0,0,0,0,0c0.3-0.4,0.3-0.9,0-1.3l-1.8-1.7
	c-0.4-0.4-0.9-0.4-1.3,0C217,205.7,217,206.2,217.3,206.6z"/>
<path class="st5" d="M212.8,202.1l1.7,1.7c0.4,0.4,1,0.4,1.4,0c0.3-0.4,0.3-0.9,0-1.3l-1.8-1.8c-0.4-0.3-0.9-0.3-1.3,0
	C212.5,201.1,212.5,201.7,212.8,202.1z"/>
<path class="st5" d="M230.5,208.6c0.4,0.3,0.9,0.3,1.3,0l1.7-1.8c0.4-0.4,0.4-0.9,0-1.3c-0.4-0.4-0.9-0.4-1.3,0l-1.7,1.7
	C230.1,207.6,230.1,208.2,230.5,208.6z"/>
<path class="st5" d="M235.4,203.6c0.4,0.3,1,0.3,1.4,0l1.7-1.8c0.4-0.4,0.4-0.9,0-1.3c-0.4-0.4-0.9-0.4-1.3,0l-1.8,1.8
	C235.1,202.7,235.1,203.2,235.4,203.6z"/>
<path class="st5" d="M235.2,206.6l1.8,1.7c0.3,0.4,0.9,0.4,1.3,0c0,0,0,0,0,0c0.3-0.4,0.3-0.9,0-1.3l-1.8-1.7
	c-0.4-0.4-0.9-0.4-1.3,0C234.9,205.7,234.9,206.2,235.2,206.6z"/>
<path class="st5" d="M230.7,202.1l1.7,1.7c0.4,0.4,1,0.4,1.4,0c0.3-0.4,0.3-0.9,0-1.3l-1.8-1.8c-0.4-0.3-0.9-0.3-1.3,0
	C230.4,201.1,230.4,201.7,230.7,202.1z"/>
<path class="st5" d="M248.4,208.6c0.4,0.3,0.9,0.3,1.3,0l1.7-1.8c0.4-0.4,0.4-0.9,0-1.3c-0.4-0.4-0.9-0.4-1.3,0l-1.7,1.7
	C248,207.6,248,208.2,248.4,208.6z"/>
<path class="st5" d="M253.3,203.6c0.4,0.3,1,0.3,1.4,0l1.7-1.8c0.4-0.4,0.4-0.9,0-1.3c-0.4-0.4-0.9-0.4-1.3,0l-1.8,1.8
	C253,202.7,253,203.2,253.3,203.6z"/>
<path class="st5" d="M253.1,206.6l1.7,1.7c0.4,0.4,1,0.4,1.4,0c0.3-0.4,0.3-0.9,0-1.3l-1.8-1.7c-0.4-0.4-0.9-0.4-1.3,0
	C252.8,205.7,252.8,206.2,253.1,206.6L253.1,206.6z"/>
<path class="st5" d="M248.6,202.1l1.7,1.7c0.4,0.4,1,0.4,1.4,0c0.3-0.4,0.3-0.9,0-1.3l-1.8-1.8c-0.4-0.3-0.9-0.3-1.3,0
	C248.3,201.1,248.3,201.7,248.6,202.1z"/>
<path class="st5" d="M266.2,208.6c0.4,0.3,1,0.3,1.4,0l1.7-1.8c0.4-0.4,0.4-0.9,0-1.3c-0.4-0.4-0.9-0.4-1.3,0l-1.8,1.7
	C265.9,207.6,265.9,208.2,266.2,208.6z"/>
<path class="st5" d="M271.2,203.6c0.4,0.3,0.9,0.3,1.3,0l1.8-1.8c0.4-0.4,0.4-0.9,0-1.3c-0.4-0.4-0.9-0.4-1.3,0l-1.8,1.8
	C270.9,202.7,270.9,203.2,271.2,203.6z"/>
<path class="st5" d="M271,206.6l1.7,1.7c0.4,0.4,1,0.4,1.4,0c0.3-0.4,0.3-0.9,0-1.3l-1.8-1.7c-0.4-0.4-0.9-0.4-1.3,0
	C270.7,205.7,270.7,206.2,271,206.6L271,206.6z"/>
<path class="st5" d="M266.5,202.1l1.7,1.7c0.4,0.4,1,0.4,1.4,0c0.3-0.4,0.3-0.9,0-1.3l-1.8-1.8c-0.4-0.3-0.9-0.3-1.3,0
	C266.2,201.1,266.2,201.7,266.5,202.1z"/>
<path class="st5" d="M284.1,208.6c0.4,0.3,1,0.3,1.4,0l1.7-1.8c0.4-0.4,0.4-0.9,0-1.3c-0.4-0.4-0.9-0.4-1.3,0l-1.8,1.7
	C283.8,207.6,283.8,208.2,284.1,208.6z"/>
<path class="st5" d="M289.1,203.6c0.4,0.3,0.9,0.3,1.3,0l1.8-1.8c0.4-0.4,0.4-0.9,0-1.3c-0.4-0.4-0.9-0.4-1.3,0l-1.8,1.8
	C288.8,202.7,288.8,203.2,289.1,203.6z"/>
<path class="st5" d="M288.9,206.6l1.7,1.7c0.4,0.4,1,0.4,1.4,0c0.3-0.4,0.3-0.9,0-1.3l-1.8-1.7c-0.4-0.4-0.9-0.4-1.3,0
	C288.6,205.7,288.6,206.2,288.9,206.6L288.9,206.6z"/>
<path class="st5" d="M284.4,202.1l1.7,1.7c0.4,0.4,0.9,0.4,1.3,0c0.4-0.4,0.4-0.9,0-1.3l-1.7-1.8c-0.4-0.3-0.9-0.3-1.3,0
	C284,201.1,284,201.7,284.4,202.1z"/>
<path class="st5" d="M302,208.6c0.4,0.3,1,0.3,1.4,0l1.7-1.8c0.4-0.4,0.4-0.9,0-1.3c-0.4-0.4-0.9-0.4-1.3,0l-1.8,1.7
	C301.7,207.6,301.7,208.2,302,208.6z"/>
<path class="st5" d="M308.6,203.3l-0.3,0.3c-0.4,0.4-0.9,0.4-1.3,0c-0.4-0.4-0.4-0.9,0-1.3l0,0l1.4-1.4
	C308.4,201.7,308.5,202.5,308.6,203.3z"/>
<path class="st5" d="M309,208.6l-0.5-0.3l-1.7-1.7c-0.4-0.4-0.4-0.9,0-1.3c0.4-0.4,0.9-0.4,1.3,0l0.7,0.7
	C308.9,206.8,308.9,207.7,309,208.6z"/>
<path class="st5" d="M302.3,202.1l1.7,1.7c0.4,0.4,0.9,0.4,1.3,0c0.4-0.4,0.4-0.9,0-1.3l-1.7-1.8c-0.4-0.3-0.9-0.3-1.3,0
	C301.9,201.1,301.9,201.7,302.3,202.1z"/>
<path class="st5" d="M184.8,215.6l-0.9,0.9c0.1-0.8,0.3-1.7,0.4-2.5c0.2,0,0.4,0.1,0.5,0.3C185.2,214.6,185.2,215.2,184.8,215.6
	C184.8,215.6,184.8,215.6,184.8,215.6z"/>
<path class="st5" d="M184.6,222.1c-0.4,0.3-0.9,0.3-1.3,0l-0.3-0.3c0.1-0.7,0.3-1.5,0.4-2.3l1.2,1.3
	C185,221.1,185,221.7,184.6,222.1C184.6,222.1,184.6,222.1,184.6,222.1z"/>
<path class="st5" d="M194.7,222.3c0.3,0.4,0.9,0.4,1.3,0c0,0,0,0,0,0l1.7-1.7c0.4-0.4,0.4-1,0-1.4c-0.4-0.3-0.9-0.3-1.3,0l-1.7,1.8
	C194.4,221.3,194.4,221.9,194.7,222.3C194.7,222.3,194.7,222.3,194.7,222.3z"/>
<path class="st5" d="M199.6,217.3c0.4,0.4,1,0.4,1.4,0l1.7-1.7c0.4-0.4,0.4-0.9,0-1.3s-0.9-0.4-1.3,0l-1.8,1.7
	C199.3,216.4,199.3,216.9,199.6,217.3z"/>
<path class="st5" d="M199.4,220.3l1.8,1.8c0.4,0.4,0.9,0.4,1.3,0s0.4-0.9,0-1.3l-1.8-1.8c-0.4-0.4-0.9-0.4-1.3,0
	S199.1,219.9,199.4,220.3z"/>
<path class="st5" d="M194.9,215.8l1.7,1.8c0.4,0.3,1.1,0.2,1.4-0.2c0.3-0.4,0.3-0.8,0-1.2l-1.8-1.7c-0.4-0.4-0.9-0.4-1.3,0
	S194.6,215.4,194.9,215.8L194.9,215.8L194.9,215.8z"/>
<path class="st5" d="M212.6,222.3c0.3,0.4,0.9,0.4,1.3,0c0,0,0,0,0,0l1.7-1.7c0.4-0.4,0.4-1,0-1.4c-0.4-0.3-0.9-0.3-1.3,0l-1.7,1.8
	C212.3,221.3,212.3,221.9,212.6,222.3C212.6,222.3,212.6,222.3,212.6,222.3z"/>
<path class="st5" d="M217.5,217.3c0.4,0.4,1,0.4,1.4,0l1.7-1.7c0.4-0.4,0.4-0.9,0-1.3c-0.4-0.4-0.9-0.4-1.3,0l-1.8,1.7
	C217.2,216.4,217.2,216.9,217.5,217.3z"/>
<path class="st5" d="M217.3,220.3l1.8,1.8c0.4,0.4,0.9,0.4,1.3,0c0.4-0.4,0.4-0.9,0-1.3l-1.8-1.8c-0.4-0.4-0.9-0.4-1.3,0
	C217,219.4,217,219.9,217.3,220.3z"/>
<path class="st5" d="M212.8,215.8l1.7,1.8c0.4,0.3,1.1,0.2,1.4-0.2c0.3-0.4,0.3-0.8,0-1.2l-1.8-1.7c-0.4-0.4-0.9-0.4-1.3,0
	C212.5,214.9,212.5,215.4,212.8,215.8L212.8,215.8z"/>
<path class="st5" d="M230.5,222.3c0.3,0.4,0.9,0.4,1.3,0c0,0,0,0,0,0l1.7-1.7c0.4-0.4,0.4-1,0-1.4c-0.4-0.3-0.9-0.3-1.3,0l-1.7,1.8
	C230.2,221.3,230.2,221.9,230.5,222.3C230.5,222.3,230.5,222.3,230.5,222.3z"/>
<path class="st5" d="M235.4,217.3c0.4,0.4,1,0.4,1.4,0l1.7-1.7c0.4-0.4,0.4-0.9,0-1.3c-0.4-0.4-0.9-0.4-1.3,0l-1.8,1.7
	C235.1,216.4,235.1,216.9,235.4,217.3z"/>
<path class="st5" d="M235.2,220.3l1.8,1.8c0.4,0.4,0.9,0.4,1.3,0c0.4-0.4,0.4-0.9,0-1.3l-1.8-1.8c-0.4-0.4-0.9-0.4-1.3,0
	C234.9,219.4,234.9,219.9,235.2,220.3z"/>
<path class="st5" d="M230.7,215.8l1.7,1.8c0.4,0.3,1.1,0.2,1.4-0.2c0.3-0.4,0.3-0.8,0-1.2l-1.8-1.7c-0.4-0.4-0.9-0.4-1.3,0
	C230.4,214.9,230.4,215.4,230.7,215.8L230.7,215.8z"/>
<path class="st5" d="M248.4,222.3c0.3,0.4,0.9,0.4,1.3,0c0,0,0,0,0,0l1.7-1.7c0.4-0.4,0.4-1,0-1.4c-0.4-0.3-0.9-0.3-1.3,0l-1.7,1.8
	C248.1,221.3,248.1,221.9,248.4,222.3C248.4,222.3,248.4,222.3,248.4,222.3z"/>
<path class="st5" d="M253.3,217.3c0.4,0.4,1,0.4,1.4,0l1.7-1.7c0.4-0.4,0.4-0.9,0-1.3c-0.4-0.4-0.9-0.4-1.3,0l-1.8,1.7
	C253,216.4,253,216.9,253.3,217.3z"/>
<path class="st5" d="M253.1,220.3l1.7,1.8c0.4,0.3,1,0.3,1.4,0c0.3-0.4,0.3-0.9,0-1.3l-1.8-1.8c-0.4-0.4-0.9-0.4-1.3,0
	C252.8,219.4,252.8,219.9,253.1,220.3z"/>
<path class="st5" d="M248.6,215.8l1.7,1.8c0.3,0.4,1,0.5,1.4,0.2s0.5-1,0.2-1.4c-0.1-0.1-0.1-0.1-0.2-0.2l-1.8-1.7
	c-0.4-0.4-0.9-0.4-1.3,0C248.3,214.9,248.3,215.4,248.6,215.8L248.6,215.8z"/>
<path class="st5" d="M266.2,222.3c0.4,0.4,1,0.4,1.4,0l1.7-1.7c0.4-0.4,0.4-1,0-1.4c-0.4-0.3-0.9-0.3-1.3,0l-1.8,1.8
	C265.9,221.4,266,221.9,266.2,222.3z"/>
<path class="st5" d="M271.2,217.3c0.3,0.4,0.9,0.4,1.3,0c0,0,0,0,0,0l1.8-1.7c0.4-0.4,0.4-0.9,0-1.3c-0.4-0.4-0.9-0.4-1.3,0
	l-1.8,1.7C270.9,216.4,270.9,216.9,271.2,217.3z"/>
<path class="st5" d="M271,220.3l1.7,1.8c0.4,0.3,1,0.3,1.4,0c0.3-0.4,0.3-0.9,0-1.3l-1.8-1.8c-0.4-0.4-0.9-0.4-1.3,0
	C270.7,219.4,270.7,219.9,271,220.3L271,220.3z"/>
<path class="st5" d="M266.5,215.8l1.7,1.8c0.4,0.3,1.1,0.2,1.4-0.2c0.3-0.4,0.3-0.8,0-1.2l-1.8-1.7c-0.4-0.4-0.9-0.4-1.3,0
	C266.2,214.9,266.2,215.4,266.5,215.8L266.5,215.8z"/>
<path class="st5" d="M292.2,215.6l-0.7,0.7l-2.6,0.2c0-0.2,0.1-0.3,0.2-0.5l1.8-1.7c0.4-0.4,0.9-0.4,1.3,0
	C292.6,214.7,292.6,215.2,292.2,215.6L292.2,215.6z"/>
<path class="st5" d="M287.7,216.6l-2.3,0.2l-1-1c-0.4-0.4-0.4-0.9,0-1.3c0.4-0.4,0.9-0.4,1.3,0l1.7,1.7
	C287.6,216.3,287.6,216.5,287.7,216.6z"/>
<path class="st5" d="M309.2,214.9H308l0.8-0.7c0.1-0.2,0.2-0.2,0.4-0.3L309.2,214.9z"/>
<path class="st5" d="M304.4,215.3l-2.3,0.2c-0.2-0.3-0.1-0.8,0.2-1c0.3-0.4,0.9-0.4,1.3,0c0,0,0,0,0,0L304.4,215.3z"/>
<path class="st5" d="M184.8,229.3l-1.7,1.8c-0.4,0.3-1,0.3-1.4,0c-0.1-0.1-0.1-0.3-0.2-0.4c0.1-0.3,0.1-0.5,0.1-0.8h0.1l1.8-1.8
	c0.4-0.4,0.9-0.4,1.3,0s0.4,0.9,0,1.3L184.8,229.3z"/>
<path class="st5" d="M181.5,234.1l1.8,1.7c0.4,0.4,0.9,0.4,1.3,0s0.4-0.9,0-1.3l0,0l-1.8-1.7c-0.3-0.4-0.9-0.4-1.3,0c0,0,0,0,0,0
	C181.2,233.2,181.2,233.7,181.5,234.1z"/>
<path class="st5" d="M194.7,236.1c0.4,0.3,0.9,0.3,1.3,0l1.7-1.8c0.4-0.4,0.4-0.9,0-1.3s-0.9-0.4-1.3,0l-1.7,1.7
	C194.3,235.1,194.3,235.7,194.7,236.1z"/>
<path class="st5" d="M199.6,231.1c0.4,0.3,1,0.3,1.4,0l1.7-1.8c0.4-0.4,0.4-0.9,0-1.3c-0.4-0.4-0.9-0.4-1.3,0l-1.8,1.8
	C199.3,230.2,199.3,230.7,199.6,231.1z"/>
<path class="st5" d="M199.4,234.1l1.8,1.7c0.3,0.4,0.9,0.4,1.3,0c0,0,0,0,0,0c0.3-0.4,0.3-0.9,0-1.3l-1.8-1.7
	c-0.4-0.4-0.9-0.4-1.3,0S199.1,233.7,199.4,234.1z"/>
<path class="st5" d="M194.9,229.6l1.7,1.7c0.4,0.4,1,0.4,1.4,0c0.3-0.4,0.3-0.9,0-1.3l-1.8-1.8c-0.4-0.3-0.9-0.3-1.3,0
	C194.5,228.6,194.5,229.2,194.9,229.6C194.9,229.6,194.9,229.6,194.9,229.6z"/>
<path class="st5" d="M212.6,236.1c0.4,0.3,0.9,0.3,1.3,0l1.7-1.8c0.4-0.4,0.4-0.9,0-1.3c-0.4-0.4-0.9-0.4-1.3,0l0,0l-1.7,1.7
	C212.2,235.1,212.2,235.7,212.6,236.1z"/>
<path class="st5" d="M217.5,231.1c0.4,0.3,1,0.3,1.4,0l1.7-1.8c0.4-0.4,0.4-0.9,0-1.3c-0.4-0.4-0.9-0.4-1.3,0l-1.8,1.8
	C217.2,230.2,217.2,230.7,217.5,231.1z"/>
<path class="st5" d="M217.3,234.1l1.8,1.7c0.3,0.4,0.9,0.4,1.3,0c0,0,0,0,0,0c0.3-0.4,0.3-0.9,0-1.3l-1.8-1.7
	c-0.4-0.4-0.9-0.4-1.3,0C217,233.2,217,233.7,217.3,234.1z"/>
<path class="st5" d="M212.8,229.6l1.7,1.7c0.4,0.4,1,0.4,1.4,0c0.3-0.4,0.3-0.9,0-1.3l-1.8-1.8c-0.4-0.3-0.9-0.3-1.3,0
	C212.5,228.6,212.5,229.2,212.8,229.6z"/>
<path class="st5" d="M230.5,236.1c0.4,0.3,0.9,0.3,1.3,0l1.7-1.8c0.4-0.4,0.4-0.9,0-1.3c-0.4-0.4-0.9-0.4-1.3,0l-1.7,1.7
	C230.1,235.1,230.1,235.7,230.5,236.1z"/>
<path class="st5" d="M235.4,231.1c0.4,0.3,1,0.3,1.4,0l1.7-1.8c0.4-0.4,0.4-0.9,0-1.3c-0.4-0.4-0.9-0.4-1.3,0l-1.8,1.8
	C235.1,230.2,235.1,230.7,235.4,231.1z"/>
<path class="st5" d="M235.2,234.1l1.8,1.7c0.3,0.4,0.9,0.4,1.3,0c0,0,0,0,0,0c0.3-0.4,0.3-0.9,0-1.3l-1.8-1.7
	c-0.4-0.4-0.9-0.4-1.3,0C234.9,233.2,234.9,233.7,235.2,234.1L235.2,234.1z"/>
<path class="st5" d="M230.7,229.6l1.7,1.7c0.4,0.4,1,0.4,1.4,0c0.3-0.4,0.3-0.9,0-1.3l-1.8-1.8c-0.4-0.3-0.9-0.3-1.3,0
	C230.4,228.6,230.4,229.2,230.7,229.6z"/>
<path class="st5" d="M248.4,236.1c0.4,0.3,0.9,0.3,1.3,0l1.7-1.8c0.4-0.4,0.4-0.9,0-1.3c-0.4-0.4-0.9-0.4-1.3,0l-1.7,1.7
	C248,235.1,248,235.7,248.4,236.1z"/>
<path class="st5" d="M253.3,231.1c0.4,0.3,1,0.3,1.4,0l1.7-1.8c0.4-0.4,0.4-0.9,0-1.3c-0.4-0.4-0.9-0.4-1.3,0l0,0l-1.8,1.8
	C253,230.2,253,230.7,253.3,231.1z"/>
<path class="st5" d="M253.1,234.1l1.7,1.7c0.4,0.4,1,0.4,1.4,0c0.3-0.4,0.3-0.9,0-1.3l-1.8-1.7c-0.4-0.4-0.9-0.4-1.3,0
	C252.8,233.2,252.8,233.7,253.1,234.1L253.1,234.1z"/>
<path class="st5" d="M248.6,229.6l1.7,1.7c0.4,0.4,1,0.4,1.4,0c0.3-0.4,0.3-0.9,0-1.3l-1.8-1.8c-0.4-0.3-0.9-0.3-1.3,0
	C248.3,228.6,248.3,229.2,248.6,229.6z"/>
<path class="st5" d="M266.2,236.1c0.4,0.3,1,0.3,1.4,0l1.7-1.8c0.4-0.4,0.4-0.9,0-1.3c-0.4-0.4-0.9-0.4-1.3,0l0,0l-1.8,1.7
	C265.9,235.1,265.9,235.7,266.2,236.1z"/>
<path class="st5" d="M271.2,231.1c0.4,0.3,0.9,0.3,1.3,0l1.8-1.8c0.4-0.4,0.4-0.9,0-1.3c-0.4-0.4-0.9-0.4-1.3,0l-1.8,1.8
	C270.9,230.2,270.9,230.7,271.2,231.1z"/>
<path class="st5" d="M271,234.1l1.7,1.7c0.4,0.4,1,0.4,1.4,0c0.3-0.4,0.3-0.9,0-1.3l-1.8-1.7c-0.4-0.4-0.9-0.4-1.3,0
	C270.7,233.2,270.7,233.7,271,234.1L271,234.1z"/>
<path class="st5" d="M266.5,229.6l1.7,1.7c0.4,0.4,1,0.4,1.4,0c0.3-0.4,0.3-0.9,0-1.3l-1.8-1.8c-0.4-0.3-0.9-0.3-1.3,0
	C266.2,228.6,266.2,229.2,266.5,229.6z"/>
<path class="st5" d="M179.8,248.1l-1.4,1.4c0.2-1,0.3-2,0.5-3c0.4-0.2,1-0.1,1.2,0.4S180.3,247.9,179.8,248.1z"/>
<path class="st5" d="M181.7,244.8c0.4,0.4,1,0.4,1.4,0l1.7-1.7c0.4-0.4,0.4-0.9,0-1.3s-0.9-0.4-1.3,0l0,0l-1.8,1.7
	C181.4,243.9,181.4,244.4,181.7,244.8z"/>
<path class="st5" d="M181.5,247.8l1.8,1.8c0.4,0.3,0.9,0.3,1.3,0c0.4-0.3,0.4-0.9,0-1.3c0,0,0,0,0,0l-1.8-1.8
	c-0.3-0.4-0.9-0.4-1.3,0c0,0,0,0,0,0C181.2,246.9,181.2,247.4,181.5,247.8z"/>
<path class="st5" d="M180.1,245.1c-0.3,0.2-0.7,0.3-1,0.2c0.1-0.7,0.2-1.5,0.4-2.2l0.6,0.6C180.4,244.1,180.4,244.7,180.1,245.1z"/>
<path class="st5" d="M194.7,249.8c0.3,0.4,0.9,0.4,1.3,0c0,0,0,0,0,0l1.7-1.7c0.4-0.4,0.4-1,0-1.4c-0.4-0.3-0.9-0.3-1.3,0l-1.7,1.8
	C194.4,248.8,194.4,249.4,194.7,249.8C194.7,249.8,194.7,249.8,194.7,249.8z"/>
<path class="st5" d="M199.6,244.8c0.4,0.4,1,0.4,1.4,0l1.7-1.7c0.4-0.4,0.4-0.9,0-1.3s-0.9-0.4-1.3,0l-1.8,1.7
	C199.3,243.9,199.3,244.4,199.6,244.8z"/>
<path class="st5" d="M199.4,247.8l1.8,1.8c0.4,0.4,0.9,0.4,1.3,0s0.4-0.9,0-1.3l-1.8-1.8c-0.4-0.4-0.9-0.4-1.3,0
	S199.1,247.4,199.4,247.8z"/>
<path class="st5" d="M194.9,243.3l1.7,1.8c0.4,0.3,1.1,0.2,1.4-0.2c0.3-0.4,0.3-0.8,0-1.2l-1.8-1.7c-0.4-0.4-0.9-0.4-1.3,0
	S194.6,242.9,194.9,243.3L194.9,243.3L194.9,243.3z"/>
<path class="st5" d="M212.6,249.8c0.3,0.4,0.9,0.4,1.3,0c0,0,0,0,0,0l1.7-1.7c0.4-0.4,0.4-1,0-1.4c-0.4-0.3-0.9-0.3-1.3,0l-1.7,1.8
	C212.3,248.8,212.3,249.4,212.6,249.8C212.6,249.8,212.6,249.8,212.6,249.8z"/>
<path class="st5" d="M217.5,244.8c0.4,0.4,1,0.4,1.4,0l1.7-1.7c0.4-0.4,0.4-0.9,0-1.3c-0.4-0.4-0.9-0.4-1.3,0l-1.8,1.7
	C217.2,243.9,217.2,244.4,217.5,244.8z"/>
<path class="st5" d="M217.3,247.8l1.8,1.8c0.4,0.4,0.9,0.4,1.3,0c0.4-0.4,0.4-0.9,0-1.3l-1.8-1.8c-0.4-0.4-0.9-0.4-1.3,0
	C217,246.9,217,247.4,217.3,247.8z"/>
<path class="st5" d="M212.8,243.3l1.7,1.8c0.4,0.3,1.1,0.2,1.4-0.2c0.3-0.4,0.3-0.8,0-1.2l-1.8-1.7c-0.4-0.4-0.9-0.4-1.3,0
	C212.5,242.4,212.5,242.9,212.8,243.3L212.8,243.3z"/>
<path class="st5" d="M230.5,249.8c0.3,0.4,0.9,0.4,1.3,0c0,0,0,0,0,0l1.7-1.7c0.4-0.4,0.4-1,0-1.4c-0.4-0.3-0.9-0.3-1.3,0l-1.7,1.8
	C230.2,248.8,230.2,249.4,230.5,249.8C230.5,249.8,230.5,249.8,230.5,249.8z"/>
<path class="st5" d="M235.4,244.8c0.4,0.4,1,0.4,1.4,0l1.7-1.7c0.4-0.4,0.4-0.9,0-1.3c-0.4-0.4-0.9-0.4-1.3,0l-1.8,1.7
	C235.1,243.9,235.1,244.4,235.4,244.8z"/>
<path class="st5" d="M235.2,247.8l1.8,1.8c0.4,0.4,0.9,0.4,1.3,0c0.4-0.4,0.4-0.9,0-1.3l-1.8-1.8c-0.4-0.4-0.9-0.4-1.3,0
	C234.9,246.9,234.9,247.4,235.2,247.8z"/>
<path class="st5" d="M230.7,243.3l1.7,1.8c0.4,0.3,1.1,0.2,1.4-0.2c0.3-0.4,0.3-0.8,0-1.2L232,242c-0.4-0.4-0.9-0.4-1.3,0
	C230.4,242.4,230.4,242.9,230.7,243.3L230.7,243.3z"/>
<path class="st5" d="M248.4,249.8c0.3,0.4,0.9,0.4,1.3,0c0,0,0,0,0,0l1.7-1.7c0.4-0.4,0.4-1,0-1.4c-0.4-0.3-0.9-0.3-1.3,0l-1.7,1.8
	C248.1,248.8,248.1,249.4,248.4,249.8C248.4,249.8,248.4,249.8,248.4,249.8z"/>
<path class="st5" d="M253.3,244.8c0.4,0.4,1,0.4,1.4,0l1.7-1.7c0.4-0.4,0.4-0.9,0-1.3c-0.4-0.4-0.9-0.4-1.3,0l-1.8,1.7
	C253,243.9,253,244.4,253.3,244.8z"/>
<path class="st5" d="M253.1,247.8l1.7,1.8c0.4,0.3,1,0.3,1.4,0c0.3-0.4,0.3-0.9,0-1.3l-1.8-1.8c-0.4-0.4-0.9-0.4-1.3,0
	C252.8,246.9,252.8,247.4,253.1,247.8L253.1,247.8z"/>
<path class="st5" d="M248.6,243.3l1.7,1.8c0.3,0.4,1,0.5,1.4,0.2s0.5-1,0.2-1.4c-0.1-0.1-0.1-0.1-0.2-0.2l-1.8-1.7
	c-0.4-0.4-0.9-0.4-1.3,0C248.3,242.4,248.3,242.9,248.6,243.3L248.6,243.3z"/>
<path class="st5" d="M266.2,249.8c0.4,0.4,1,0.4,1.4,0l1.7-1.7c0.4-0.4,0.4-1,0-1.4c-0.4-0.3-0.9-0.3-1.3,0l-1.8,1.8
	C265.9,248.9,266,249.4,266.2,249.8z"/>
<path class="st5" d="M271.2,244.8c0.3,0.4,0.9,0.4,1.3,0c0,0,0,0,0,0l1.8-1.7c0.4-0.4,0.4-0.9,0-1.3c-0.4-0.4-0.9-0.4-1.3,0
	l-1.8,1.7C270.9,243.9,270.9,244.4,271.2,244.8z"/>
<path class="st5" d="M271,247.8l1.7,1.8c0.4,0.3,1,0.3,1.4,0c0.3-0.4,0.3-0.9,0-1.3l-1.8-1.8c-0.4-0.4-0.9-0.4-1.3,0
	C270.7,246.9,270.7,247.4,271,247.8L271,247.8z"/>
<path class="st5" d="M266.5,243.3l1.7,1.8c0.4,0.3,1.1,0.2,1.4-0.2c0.3-0.4,0.3-0.8,0-1.2l-1.8-1.7c-0.4-0.4-0.9-0.4-1.3,0
	C266.2,242.4,266.2,242.9,266.5,243.3L266.5,243.3z"/>
<path class="st5" d="M176.8,263.6c0.4,0.3,0.9,0.3,1.3,0l1.7-1.8c0.4-0.4,0.4-0.9,0-1.3c-0.4-0.4-0.9-0.4-1.3,0l-1.7,1.7
	C176.4,262.6,176.4,263.2,176.8,263.6z"/>
<path class="st5" d="M181.7,258.6c0.4,0.4,1,0.4,1.4,0l1.7-1.8c0.4-0.3,0.4-0.9,0-1.3c0,0,0,0,0,0c-0.4-0.3-0.9-0.3-1.3,0l-1.8,1.8
	C181.4,257.7,181.4,258.2,181.7,258.6z"/>
<path class="st5" d="M181.5,261.6l1.8,1.7c0.4,0.4,0.9,0.4,1.3,0c0.4-0.4,0.4-0.9,0-1.3l-1.8-1.7c-0.3-0.4-0.9-0.4-1.3,0
	c0,0,0,0,0,0C181.2,260.7,181.2,261.2,181.5,261.6z"/>
<path class="st5" d="M180.1,258.8c-0.3,0.4-0.9,0.4-1.3,0c0,0,0,0,0,0l-1.7-1.6l0.3-1.7c0.3-0.1,0.7,0,0.9,0.2l1.8,1.8
	C180.4,257.9,180.4,258.4,180.1,258.8z"/>
<path class="st5" d="M194.7,263.6c0.4,0.3,0.9,0.3,1.3,0l1.7-1.8c0.4-0.4,0.4-0.9,0-1.3c-0.4-0.4-0.9-0.4-1.3,0l-1.7,1.7
	C194.3,262.6,194.3,263.2,194.7,263.6z"/>
<path class="st5" d="M199.6,258.6c0.4,0.4,1,0.4,1.4,0l1.7-1.8c0.4-0.3,0.4-0.9,0-1.3c0,0,0,0,0,0c-0.4-0.3-0.9-0.3-1.3,0l-1.8,1.8
	C199.3,257.7,199.3,258.2,199.6,258.6z"/>
<path class="st5" d="M199.4,261.6l1.8,1.7c0.3,0.4,0.9,0.4,1.3,0c0,0,0,0,0,0c0.3-0.4,0.3-0.9,0-1.3l-1.8-1.7
	c-0.4-0.4-0.9-0.4-1.3,0C199.1,260.7,199.1,261.2,199.4,261.6z"/>
<path class="st5" d="M194.9,257.1l1.7,1.7c0.4,0.4,1,0.4,1.4,0c0.3-0.4,0.3-0.9,0-1.3l-1.8-1.8c-0.4-0.3-0.9-0.3-1.3,0
	C194.5,256.1,194.5,256.7,194.9,257.1C194.9,257.1,194.9,257.1,194.9,257.1z"/>
<path class="st5" d="M212.6,263.6c0.4,0.3,0.9,0.3,1.3,0l1.7-1.8c0.4-0.4,0.4-0.9,0-1.3s-0.9-0.4-1.3,0l-1.7,1.7
	C212.2,262.6,212.2,263.2,212.6,263.6z"/>
<path class="st5" d="M217.5,258.6c0.4,0.4,1,0.4,1.4,0l1.7-1.8c0.4-0.3,0.4-0.9,0-1.3c0,0,0,0,0,0c-0.4-0.3-0.9-0.3-1.3,0l-1.8,1.8
	C217.2,257.7,217.2,258.2,217.5,258.6z"/>
<path class="st5" d="M217.3,261.6l1.8,1.7c0.3,0.4,0.9,0.4,1.3,0c0,0,0,0,0,0c0.3-0.4,0.3-0.9,0-1.3l-1.8-1.7
	c-0.4-0.4-0.9-0.4-1.3,0S217,261.2,217.3,261.6z"/>
<path class="st5" d="M212.8,257.1l1.7,1.7c0.4,0.4,1,0.4,1.4,0c0.3-0.4,0.3-0.9,0-1.3l-1.8-1.8c-0.4-0.3-0.9-0.3-1.3,0
	C212.4,256.1,212.4,256.7,212.8,257.1z"/>
<path class="st5" d="M230.5,263.6c0.4,0.3,0.9,0.3,1.3,0l1.7-1.8c0.4-0.4,0.4-0.9,0-1.3s-0.9-0.4-1.3,0l-1.7,1.7
	C230.1,262.6,230.1,263.2,230.5,263.6z"/>
<path class="st5" d="M235.4,258.6c0.4,0.4,1,0.4,1.4,0l1.7-1.8c0.4-0.3,0.4-0.9,0-1.3c0,0,0,0,0,0c-0.4-0.3-0.9-0.3-1.3,0l-1.8,1.8
	C235.1,257.7,235.1,258.2,235.4,258.6z"/>
<path class="st5" d="M235.2,261.6l1.8,1.7c0.3,0.4,0.9,0.4,1.3,0c0,0,0,0,0,0c0.3-0.4,0.3-0.9,0-1.3l-1.8-1.7
	c-0.4-0.4-0.9-0.4-1.3,0S234.9,261.2,235.2,261.6z"/>
<path class="st5" d="M230.7,257.1l1.7,1.7c0.4,0.4,1,0.4,1.4,0c0.3-0.4,0.3-0.9,0-1.3l-1.8-1.8c-0.4-0.3-0.9-0.3-1.3,0
	C230.3,256.1,230.3,256.7,230.7,257.1z"/>
<path class="st5" d="M248.4,263.6c0.4,0.3,0.9,0.3,1.3,0l1.7-1.8c0.4-0.4,0.4-0.9,0-1.3s-0.9-0.4-1.3,0l-1.7,1.7
	C248,262.6,248,263.2,248.4,263.6z"/>
<path class="st5" d="M253.3,258.6c0.4,0.4,1,0.4,1.4,0l1.7-1.8c0.4-0.3,0.4-0.9,0-1.3c0,0,0,0,0,0c-0.4-0.3-0.9-0.3-1.3,0l-1.8,1.8
	C253,257.7,253,258.2,253.3,258.6z"/>
<path class="st5" d="M253.1,261.6l1.7,1.7c0.4,0.4,1,0.4,1.4,0c0.3-0.4,0.3-0.9,0-1.3l-1.8-1.7c-0.4-0.4-0.9-0.4-1.3,0
	S252.8,261.2,253.1,261.6L253.1,261.6z"/>
<path class="st5" d="M248.6,257.1l1.7,1.7c0.4,0.4,1,0.4,1.4,0c0.3-0.4,0.3-0.9,0-1.3l-1.8-1.8c-0.4-0.3-0.9-0.3-1.3,0
	C248.2,256.1,248.2,256.7,248.6,257.1z"/>
<path class="st5" d="M266.2,263.6c0.4,0.3,1,0.3,1.4,0l1.7-1.8c0.4-0.4,0.4-0.9,0-1.3s-0.9-0.4-1.3,0l-1.8,1.7
	C265.9,262.6,265.9,263.2,266.2,263.6z"/>
<path class="st5" d="M271.2,258.6c0.3,0.4,0.9,0.4,1.3,0c0,0,0,0,0,0l1.8-1.8c0.4-0.3,0.4-0.9,0-1.3c0,0,0,0,0,0
	c-0.4-0.3-0.9-0.3-1.3,0l-1.8,1.8C270.9,257.7,270.9,258.2,271.2,258.6z"/>
<path class="st5" d="M271,261.6l1.7,1.7c0.4,0.4,1,0.4,1.4,0c0.3-0.4,0.3-0.9,0-1.3l-1.8-1.7c-0.4-0.4-0.9-0.4-1.3,0
	S270.7,261.2,271,261.6L271,261.6z"/>
<path class="st5" d="M266.5,257.1l1.7,1.7c0.4,0.4,1,0.4,1.4,0c0.3-0.4,0.3-0.9,0-1.3l-1.8-1.8c-0.4-0.3-0.9-0.3-1.3,0
	C266.1,256.1,266.1,256.7,266.5,257.1z"/>
<path class="st5" d="M176.8,277.3c0.3,0.4,0.9,0.4,1.3,0c0,0,0,0,0,0l1.7-1.7c0.4-0.4,0.4-1,0-1.4c-0.4-0.3-0.9-0.3-1.3,0l-1.7,1.8
	C176.5,276.3,176.5,276.9,176.8,277.3C176.8,277.3,176.8,277.3,176.8,277.3z"/>
<path class="st5" d="M181.7,272.3c0.4,0.4,1,0.4,1.4,0l1.7-1.7c0.4-0.4,0.4-0.9,0-1.3c-0.4-0.4-0.9-0.4-1.3,0l-1.8,1.7
	C181.4,271.4,181.3,272,181.7,272.3z"/>
<path class="st5" d="M181.5,275.3l1.8,1.8c0.4,0.4,0.9,0.4,1.3,0c0.4-0.4,0.4-0.9,0-1.3l0,0l-1.8-1.8c-0.3-0.4-0.9-0.4-1.3,0
	c0,0,0,0,0,0C181.2,274.4,181.2,274.9,181.5,275.3z"/>
<path class="st5" d="M177,270.8l1.8,1.8c0.4,0.4,0.9,0.4,1.3,0c0.4-0.4,0.4-0.9,0-1.3l-1.8-1.8c-0.4-0.4-0.9-0.4-1.3,0
	C176.7,269.9,176.7,270.4,177,270.8z"/>
<path class="st5" d="M194.7,277.3c0.3,0.4,0.9,0.4,1.3,0c0,0,0,0,0,0l1.7-1.7c0.4-0.4,0.4-1,0-1.4c-0.4-0.3-0.9-0.3-1.3,0l-1.7,1.8
	C194.4,276.3,194.4,276.9,194.7,277.3C194.7,277.3,194.7,277.3,194.7,277.3z"/>
<path class="st5" d="M199.6,272.3c0.4,0.4,1,0.4,1.4,0l1.7-1.7c0.4-0.4,0.4-0.9,0-1.3c-0.4-0.4-0.9-0.4-1.3,0l-1.8,1.7
	C199.3,271.4,199.2,272,199.6,272.3z"/>
<path class="st5" d="M199.4,275.3l1.8,1.8c0.3,0.4,0.9,0.4,1.3,0c0,0,0,0,0,0c0.3-0.4,0.3-0.9,0-1.3l-1.8-1.8
	c-0.4-0.4-0.9-0.4-1.3,0C199.1,274.4,199.1,274.9,199.4,275.3z"/>
<path class="st5" d="M194.9,270.8l1.7,1.8c0.4,0.3,1,0.3,1.4,0c0.3-0.4,0.3-0.9,0-1.3l-1.8-1.8c-0.4-0.4-0.9-0.4-1.3,0
	C194.6,269.9,194.6,270.4,194.9,270.8L194.9,270.8z"/>
<path class="st5" d="M212.6,277.3c0.3,0.4,0.9,0.4,1.3,0c0,0,0,0,0,0l1.7-1.7c0.4-0.4,0.4-1,0-1.4c-0.4-0.3-0.9-0.3-1.3,0l-1.7,1.8
	C212.3,276.3,212.3,276.9,212.6,277.3C212.6,277.3,212.6,277.3,212.6,277.3z"/>
<path class="st5" d="M217.5,272.3c0.4,0.4,1,0.4,1.4,0l1.7-1.7c0.4-0.4,0.4-0.9,0-1.3s-0.9-0.4-1.3,0l-1.8,1.7
	C217.2,271.4,217.2,271.9,217.5,272.3z"/>
<path class="st5" d="M217.3,275.3l1.8,1.8c0.3,0.4,0.9,0.4,1.3,0c0,0,0,0,0,0c0.3-0.4,0.3-0.9,0-1.3l-1.8-1.8
	c-0.4-0.4-0.9-0.4-1.3,0S217,274.9,217.3,275.3z"/>
<path class="st5" d="M212.8,270.8l1.7,1.8c0.4,0.3,1,0.3,1.4,0c0.3-0.4,0.3-0.9,0-1.3l-1.8-1.8c-0.4-0.4-0.9-0.4-1.3,0
	S212.5,270.4,212.8,270.8L212.8,270.8z"/>
<path class="st5" d="M230.5,277.3c0.3,0.4,0.9,0.4,1.3,0c0,0,0,0,0,0l1.7-1.7c0.4-0.4,0.4-1,0-1.4c-0.4-0.3-0.9-0.3-1.3,0l-1.7,1.8
	C230.2,276.3,230.2,276.9,230.5,277.3C230.5,277.3,230.5,277.3,230.5,277.3z"/>
<path class="st5" d="M235.4,272.3c0.4,0.4,1,0.4,1.4,0l1.7-1.7c0.4-0.4,0.4-0.9,0-1.3s-0.9-0.4-1.3,0l-1.8,1.7
	C235.1,271.4,235.1,271.9,235.4,272.3z"/>
<path class="st5" d="M235.2,275.3l1.8,1.8c0.3,0.4,0.9,0.4,1.3,0c0,0,0,0,0,0c0.3-0.4,0.3-0.9,0-1.3l-1.8-1.8
	c-0.4-0.4-0.9-0.4-1.3,0S234.9,274.9,235.2,275.3z"/>
<path class="st5" d="M230.7,270.8l1.7,1.8c0.4,0.3,1,0.3,1.4,0c0.3-0.4,0.3-0.9,0-1.3l-1.8-1.8c-0.4-0.4-0.9-0.4-1.3,0
	S230.4,270.4,230.7,270.8L230.7,270.8L230.7,270.8z"/>
<path class="st5" d="M248.4,277.3c0.3,0.4,0.9,0.4,1.3,0c0,0,0,0,0,0l1.7-1.7c0.4-0.4,0.4-1,0-1.4c-0.4-0.3-0.9-0.3-1.3,0l-1.7,1.8
	C248.1,276.3,248.1,276.9,248.4,277.3C248.4,277.3,248.4,277.3,248.4,277.3z"/>
<path class="st5" d="M253.3,272.3c0.4,0.4,1,0.4,1.4,0l1.7-1.7c0.4-0.4,0.4-0.9,0-1.3s-0.9-0.4-1.3,0l-1.8,1.7
	C253,271.4,253,271.9,253.3,272.3z"/>
<path class="st5" d="M253.1,275.3l1.7,1.8c0.4,0.4,1,0.4,1.4,0c0.3-0.4,0.3-0.9,0-1.3l-1.8-1.8c-0.4-0.4-0.9-0.4-1.3,0
	S252.8,274.9,253.1,275.3z"/>
<path class="st5" d="M248.6,270.8l1.7,1.8c0.4,0.3,1,0.3,1.4,0c0.3-0.4,0.3-0.9,0-1.3l-1.8-1.8c-0.4-0.4-0.9-0.4-1.3,0
	S248.3,270.4,248.6,270.8L248.6,270.8z"/>
<path class="st5" d="M266.2,277.3c0.4,0.4,1,0.4,1.4,0l1.7-1.7c0.4-0.4,0.4-1,0-1.4c-0.4-0.3-0.9-0.3-1.3,0l-1.8,1.8
	C265.9,276.4,265.9,276.9,266.2,277.3z"/>
<path class="st5" d="M271.2,272.3c0.3,0.4,0.9,0.4,1.3,0c0,0,0,0,0,0l1.8-1.7c0.4-0.4,0.4-0.9,0-1.3s-0.9-0.4-1.3,0l-1.8,1.7
	C270.9,271.4,270.9,271.9,271.2,272.3z"/>
<path class="st5" d="M271,275.3l1.7,1.8c0.4,0.4,1,0.4,1.4,0c0.3-0.4,0.3-0.9,0-1.3l-1.8-1.8c-0.4-0.4-0.9-0.4-1.3,0
	S270.7,274.9,271,275.3L271,275.3z"/>
<path class="st5" d="M266.5,270.8l1.7,1.8c0.4,0.3,1,0.3,1.4,0c0.3-0.4,0.3-0.9,0-1.3l-1.8-1.8c-0.4-0.4-0.9-0.4-1.3,0
	S266.2,270.4,266.5,270.8L266.5,270.8z"/>
<path class="st4" d="M248,260.2h-0.1c-6-4.7-11.5-10-16.4-15.8c-7.4-9-16.1-22.9-15.5-38.6c0-0.4,0.4-0.8,0.8-0.8
	c0.4,0,0.8,0.4,0.8,0.8c-0.6,15.2,7.9,28.8,15.2,37.5c4.7,5.8,10.1,11,16.1,15.5c0.3,0.3,0.4,0.8,0.2,1.2
	C248.9,260.3,248.4,260.4,248,260.2z"/>
<path class="st4" d="M249.6,157.8c0.5,0.1,1-0.1,1.1-0.6c0.2-0.4,0-0.9-0.4-1.1c0,0-0.1,0-0.1,0c-18.3-7.2-19.9-19.7-19.9-19.8
	c-0.1-0.5-0.5-0.9-1-0.8c-0.5,0.1-0.9,0.5-0.8,1c0.1,0.6,1.7,13.6,21.1,21.2L249.6,157.8z"/>
<path class="st4" d="M240.4,160.2c0.4,0.2,0.9,0,1.1-0.4c0,0,0-0.1,0-0.1c0.2-0.4,0-0.9-0.4-1.1c0,0-0.1,0-0.1,0
	c-10-4.2-11.2-9.9-11.2-10c-0.1-0.5-0.6-0.8-1.1-0.7c0,0,0,0,0,0c-0.5,0.1-0.8,0.6-0.7,1.1C228.1,149.2,229.5,155.7,240.4,160.2
	L240.4,160.2z"/>
<path class="st4" d="M271,180.2l2.2,16l0.5,3.7l3.6,25.6l0.2-10.5l-2.2-15.5l-2.7-19.6c-0.1-0.4-0.5-0.7-1-0.7
	C271.2,179.3,270.9,179.7,271,180.2C271,180.2,271,180.2,271,180.2z"/>
<path class="st4" d="M274.5,200.4h0.5c0.3-0.3,0.4-0.7,0.2-1.1l-5.4-8c-0.3-0.3-0.7-0.4-1.1-0.2c-0.3,0.2-0.5,0.6-0.3,0.9
	c0,0.1,0.1,0.1,0.1,0.2l5.3,8C274,200.3,274.3,200.4,274.5,200.4z"/>
<path class="st5" d="M199.3,283.8c0-0.2,0.1-0.3,0.3-0.5c0.3-0.3,0.7-0.2,1,0c0,0,0.1,0.1,0.1,0.2l0.3,0.3H199.3z"/>
<path class="st4" d="M218.9,283.8c-9.5-4.7-19.7-12.2-25.3-23.4c-0.2-0.4,0-0.9,0.3-1.1c0,0,0,0,0.1,0c0.4-0.2,0.9-0.1,1.1,0.3
	c0,0,0,0,0,0c5.9,12.2,17.6,19.7,27.5,24.2H218.9z"/>
<path class="st1" d="M242.4,139.7c12.3,4.9,18.8-7.6,18.8-7.6c-2.6-5.5-4.8-16.1-5.4-21.2c-0.3-2.6-0.4-4.3-0.4-4.3l-22.8,14.8
	l1.2,9.5l0.3,2.3C234.1,133.2,234.8,136.6,242.4,139.7z"/>
<path class="st2" d="M233.8,130.9c12.4-3.7,19.5-15.2,21.8-21.4c-0.2-1-0.2-1.9-0.2-2.9l-22.8,14.8L233.8,130.9z"/>
<path class="st6" d="M213.5,86.9c0,0-3-5.9-8.9-3.7s-1.6,27.7,13.2,23.3L213.5,86.9z"/>
<path class="st1" d="M205.6,84.4c0.2,2.6,0.6,5.2,1.2,7.7l0,0c0.4,2.2,1,4.6,1.7,7.2c0.1,0.5,0.3,0.9,0.4,1.4l0.5,1.5
	c0.1,0.6,0.3,1.1,0.5,1.7c0.2,0.7,0.5,1.3,0.7,2c0.4,1.1,0.8,2.2,1.3,3.2c4.8,11.6,14.3,18.6,26.9,14.3
	c10.5-3.6,16.3-11.8,19.4-20.5c5-13.9,3.3-29.1,3.3-29.1C259,53,240.6,46.5,222.2,54.3S204.6,74.7,205.6,84.4z"/>
<path class="st2" d="M256.9,84.5c0,0,3.5,12.2,1.5,21.4s-13.2,26-29.9,21.5s-18.6-23.5-18.6-23.5s2.2,2.2,7.9,2.6s5.3-4.6,15.7-2.6
	s16.1-4.5,16.9-9.1c0.5-2.5,0.8-5,0.9-7.5L256.9,84.5z"/>
<path class="st4" d="M238.2,105.3c0,0-12.2,3-19.3,2.8c0,0,2.2,8.7,11.9,6.4C238.3,112.8,238.2,105.3,238.2,105.3z"/>
<path class="st6" d="M237.7,96.5c0.1,0.9,2.8,1.2,5.9,0.7s5.5-1.7,5.4-2.7s-2.9-1.2-6-0.7S237.5,95.5,237.7,96.5z"/>
<path class="st6" d="M208.9,100.7l0.5,1.5c0.1,0.6,0.3,1.1,0.5,1.7l1.7-0.3c3.1-0.5,5.5-1.7,5.3-2.6s-2.8-1.3-5.9-0.7L208.9,100.7z"
	/>
<path class="st2" d="M230.4,81.3l-0.6-0.6c-0.3-0.7-0.1-1.6,0.6-2c1.6-0.7,3.3-1,5-0.7c1.5,0.3,3,0.9,4.2,1.8c0.6,0.5,0.7,1.4,0.2,2
	c0,0-0.1,0.1-0.1,0.1c-0.5,0.6-1.4,0.6-2,0.1c0,0,0,0,0,0c-0.9-0.6-1.9-1-2.9-1.2c-1-0.1-2.1,0-3,0.5
	C231.4,81.5,230.9,81.5,230.4,81.3z"/>
<path class="st2" d="M217.4,83.7c0.2-0.2,0.3-0.5,0.3-0.8c0.1-0.7-0.4-1.4-1.1-1.5c-0.1,0-0.1,0-0.2,0c-1.7-0.2-3.4,0.3-4.8,1.3
	c-1.3,0.9-2.3,2-3.1,3.4c-0.3,0.7,0,1.6,0.7,2c0.7,0.3,1.5,0,1.9-0.7c0.5-1,1.3-1.7,2.2-2.3c0.9-0.6,1.9-0.8,2.9-0.8
	C216.7,84.3,217.2,84.1,217.4,83.7z"/>
<path class="st2" d="M249.8,80.2c0,0,1.3,6,1.5,7.1c2.7,0,4.3-0.3,5.6-2.8c0.1-1,0.1-1.9,0-2.9c1-2.2,2.7-4,4.8-5.1
	c-6.4-5.7-20.7-4.9-20.7-4.9C243.4,77,248.2,78.5,249.8,80.2z"/>
<path class="st2" d="M261.7,76.5c0,0,7.6-7.3,4.2-13.4c-2-3.4-7.4-1.7-7.4-1.7s5-14.2,1-17.9s-10.9,2.1-10.9,2.1
	s-1.7-15.3-12.2-15.1s-2.9,13.4-2.9,13.4s-16.6-10.4-23.6-6.4c-10.7,6,3.7,15.5,3.7,15.5s-20.2-6.6-17.6,4.4c1.2,5.2,9,7.5,9,7.5
	s-8.3,3-8.9,6.6c-0.9,6.3,8.3,4.5,8.3,4.5c-0.3,2.1,0.6,4.1,0.9,5.4l3.6-1.5c0,0-0.2-5.2,1-8.4c0,0,25.4,1.4,31.5-6.9
	c0,0-2.9,2-0.4,7L261.7,76.5z"/>
<path class="st2" d="M208.9,79.9c0.2,2.1-0.1,4.3-1,6.2c-0.8,1.6-1.2,3.4-1,5.2v2.1c0,0-3-8.4-1.7-12L208.9,79.9z"/>
<path class="st2" d="M233.3,88.5c0.3,1.6,1.3,2.8,2.1,2.6s1.4-1.6,1.1-3.2s-1.3-2.8-2.2-2.7S233,86.9,233.3,88.5z"/>
<path class="st2" d="M213.8,92.4c0.3,1.6,1.3,2.8,2.2,2.6s1.3-1.6,1-3.3s-1.3-2.8-2.2-2.6S213.5,90.7,213.8,92.4z"/>
<path class="st6" d="M228.8,101c0.4-0.2,0.6-0.6,0.6-1c-0.1-0.5-0.6-0.9-1.1-0.8l-2.1,0.2c-0.2-2.6-0.1-5.1,0.1-7.7
	c0.1-0.6-0.3-1-0.9-1.1c-0.6-0.1-1,0.3-1.1,0.9c-0.2,3-0.1,6,0.1,9c0.1,0.5,0.4,0.8,0.9,0.9c1.1,0,2.2-0.1,3.3-0.3L228.8,101z"/>
<path class="st1" d="M256.9,81.6c0,0,2-6.3,8.2-5s8.5,23.9-6.8,22L256.9,81.6z"/>
<path class="st6" d="M260.9,93.7c0.4-0.1,0.7-0.5,0.6-1c0,0,0,0,0,0c-0.9-3.9,0.4-8,3.3-10.8c0.4-0.4,0.5-1,0.1-1.4
	c-0.3-0.4-0.9-0.4-1.3-0.1c0,0,0,0,0,0c-3.5,3.2-5,8.1-4,12.7C259.8,93.6,260.3,93.9,260.9,93.7L260.9,93.7z"/>
<path class="st6" d="M265.3,88.2c0.3-0.2,0.5-0.5,0.6-0.8c0-0.5-0.3-1-0.8-1.1c-0.4,0-3.5-0.5-5.3,1.1c-0.4,0.4-0.4,1-0.1,1.4
	c0.4,0.4,1,0.4,1.4,0c0.9-0.8,3-0.7,3.7-0.6H265.3z"/>
<path class="st4" d="M261.5,85.6c-0.2,1.4-0.3,2.8-0.3,4.2c0,0,2.9-0.1,3-2.2S261.5,85.6,261.5,85.6z"/>
<path class="st4" d="M262,87.6l-0.8,0.3c0,0-0.2,7.2,1.3,7.1s0.4-6.8,0.4-6.8L262,87.6z"/>
<path class="st4" d="M226.9,91.6c-0.6-5.4,3.2-10.2,8.6-10.9c5.4-0.6,10.2,3.2,10.9,8.6c0.6,5.3-3.2,10.1-8.5,10.8
	C232.5,100.8,227.6,97,226.9,91.6z M228.1,91.5c0.6,4.7,4.9,8.1,9.6,7.5s8.1-4.9,7.5-9.6c-0.6-4.7-4.9-8-9.6-7.5
	C230.9,82.5,227.6,86.8,228.1,91.5C228.1,91.5,228.1,91.5,228.1,91.5z"/>
<path class="st4" d="M243.5,85c0.1,0.1,0.3,0.2,0.4,0.1l0.4-0.2c3.9-3.8,9-6,14.4-6.3l1.3-1.2c-6.2-0.1-12.2,2.3-16.6,6.7
	C243.2,84.3,243.2,84.7,243.5,85C243.5,85,243.5,85,243.5,85z"/>
<path class="st4" d="M204.4,95.6c-0.6-5.4,3.2-10.2,8.6-10.9c5.4-0.6,10.2,3.2,10.9,8.6c0.6,5.3-3.2,10.1-8.5,10.8
	C210,104.8,205.1,101,204.4,95.6z M205.6,95.5c0.6,4.7,4.9,8.1,9.6,7.5c4.7-0.6,8.1-4.9,7.5-9.6c-0.6-4.7-4.9-8-9.6-7.5
	C208.4,86.5,205.1,90.8,205.6,95.5C205.6,95.5,205.6,95.5,205.6,95.5z"/>
<path class="st4" d="M222.9,92c0.2-0.1,0.4-0.2,0.5-0.4c0.3-0.7,0.9-1.3,1.7-1.4c0.7-0.1,1.4,0.1,1.9,0.6c0.1,0.2,0.4,0.3,0.7,0.2
	c0,0,0.1-0.1,0.1-0.1c0.3-0.2,0.3-0.6,0.2-0.8c0,0,0,0-0.1-0.1c-0.7-0.9-1.9-1.3-3-1c-1.2,0.2-2.1,1-2.6,2.1c-0.1,0.3,0,0.7,0.3,0.8
	c0,0,0,0,0,0L222.9,92z"/>
<path class="st1" d="M280.2,217.2c0.1,0.8,0.1,1.8,0.2,2.8v0.8c0.3,6.1,0.6,14.8,1.1,20.3s0.7,9,1.2,13.3c0,0.8,0.1,1.6,0.2,2.4l0,0
	c0.2,1,0.3,1.9,0.4,2.8c0.4,3.1,0.8,6,1.3,8.4c1.9,9.9,7.6,15.8,12.8,15c3.6-0.6,7-4.4,8.8-12.2c3-13,2.8-34.9,1.5-47.2
	c-0.1-0.8-0.3-3.8-0.5-6.1s-0.2-2-0.2-2.4l0,0L280.2,217.2z"/>
<path class="st2" d="M280.2,217.2c0.1,1,0.1,2.3,0.2,3.6l0,0l26.8-2.8c-0.1-1.3-0.2-2.3-0.2-2.8l0,0l-26.8,2.1V217.2z"/>
<path class="st1" d="M169.3,235.1c0,0,5.6-6.8-11.6-28.8s-19.7-30.1-25.8-33.7c-15.9-9.7,7.8,71.1,24.6,71.4
	C165.1,244.2,169.3,235.1,169.3,235.1z"/>
<path class="st6" d="M120.1,167.5c0,0-5.6-3.6-6-8.8c-0.1-3.2,0.9-6.4,3-8.8L120.1,167.5z"/>
<path class="st7" d="M113.8,139l6.7,31.5c0.3,1.4,1.5,2.3,2.9,2.4h16.8c1.7,0,3.1-1.4,3.1-3.1c0-0.2,0-0.4-0.1-0.6l-6.8-31.5
	c-0.3-1.4-1.5-2.5-3-2.5h-16.6c-1.7-0.1-3,1.2-3.1,2.9C113.7,138.4,113.7,138.7,113.8,139z"/>
<path class="st2" d="M113.8,139l6.7,31.5c0.3,1.4,1.5,2.3,2.9,2.4h13.8c1.7,0,3-1.3,3.1-2.9c0-0.3,0-0.5-0.1-0.8l-6.7-31.5
	c-0.3-1.4-1.5-2.4-2.9-2.4h-13.8c-1.7,0-3,1.3-3.1,2.9C113.7,138.5,113.8,138.7,113.8,139z"/>
<path class="st7" d="M122.9,153.3c0,1.7,1.4,3.1,3.1,3.1s3.1-1.4,3.1-3.1s-1.4-3.1-3.1-3.1S122.9,151.6,122.9,153.3L122.9,153.3z"/>
<path class="st1" d="M127.7,183.7c0,0-8.1-11.2-11.7-23.6c-2.2-7.3-2.9-15-1.9-22.6c0,0,1.6-1.8,2.7,4.3s2,10.6,2,10.6
	s-2.1-19.8,0-20.2s4.2,19.4,4.2,19.4s-0.4-17.1,1.1-18s2.6,13.3,3.3,17.3c0,0,0.3-10.8,2-11.5c1.7-0.7,1.8,12.4,2.9,16.3
	s5.5,7.1,5.7,13.3S136.1,185.3,127.7,183.7z"/>
<path class="st1" d="M234.5,283.9c0,0,28.5,0.2,50.8-0.1h9.2c1-0.1,2-0.3,2.9-0.7c3.6-1.6,7-5.6,8.3-12l0.4-1.9
	c0.9-4.5-1.2-9.1-5.3-11.3l-0.4-0.2c-0.9-0.4-1.8-0.7-2.8-0.9c-3.2-0.9-6.6-1.1-9.9-0.8h-1.6l-3.2,0.6h-0.3
	c-5.7,1.4-11.3,4.3-16.9,7.5c-11.5,6.5-31.7,10-31.7,10C229.3,279.5,234.5,283.9,234.5,283.9z"/>
<path class="st2" d="M282.6,256.9h0.3c3.5,0.3,7,1.4,10.1,3c-1.6-1.5-3.4-2.8-5.3-3.9c-1.5-0.9-3.2-1.4-5-1.6c0,0.8,0.1,1.6,0.2,2.4
	L282.6,256.9z"/>
<path class="st1" d="M234,273.8c0,0-12.5-4.6-21.1-2.7s-12,12.4-12,12.4l33.2-0.3C234.1,283.2,238.6,275.2,234,273.8z"/>
<path class="st8" d="M45.6,245.5l8.7,37c0.2,1,1.1,1.7,2.1,1.7h53.9c1.2,0,2.2-1,2.2-2.2c0-0.2,0-0.3-0.1-0.5l-8.7-37
	c-0.3-1-1.2-1.7-2.2-1.7H47.7c-1.2,0-2.1,0.9-2.2,2C45.5,245,45.6,245.3,45.6,245.5z"/>
<path class="st9" d="M51.9,281.3c-0.2,0-0.3-0.1-0.3-0.3l-7.5-31.6c-0.1-0.2,0-0.4,0.2-0.5c0.3,0,0.5,0.1,0.5,0.3l7.5,31.6
	C52.3,281.1,52.2,281.3,51.9,281.3L51.9,281.3z"/>
<path class="st9" d="M99.4,242.8l9.3,41.4h1.6c1.2,0,2.2-1,2.2-2.2c0-0.2,0-0.3-0.1-0.5l-8.7-37c-0.3-1-1.2-1.7-2.2-1.7H99.4z"/>
<path class="st9" d="M72.2,265.7c0,2.3,1.8,4.1,4.1,4.1c0,0,0,0,0,0c2.3,0,4.1-1.8,4.1-4.1s-1.8-4.1-4.1-4.1
	C74.1,261.6,72.2,263.4,72.2,265.7L72.2,265.7z"/>
<path class="st10" d="M268.9,283.9H142.6c-1.2,0-2.1-0.9-2.1-2.1v-3.6c0-1.2,0.9-2.1,2.1-2.1h126.3c1.2,0,2.1,0.9,2.1,2.1v3.6
	C271,283,270.1,283.9,268.9,283.9z"/>
<path class="st11" d="M97.7,212.4l16.2,68.3c0.4,1.8,2,3.1,3.9,3.1h99.6c2.2,0,4-1.8,4-4c0-0.3,0-0.6-0.1-0.9l-16.2-68.4
	c-0.4-1.8-2-3.1-3.9-3.1h-99.6c-2.2,0-4,1.8-4,4C97.6,211.7,97.6,212.1,97.7,212.4z"/>
<path class="st10" d="M197.3,207.4l17.2,76.4h2.9c2.2,0,4-1.8,4-4c0-0.3,0-0.6-0.1-0.9l-16.2-68.4c-0.4-1.8-2-3.1-3.9-3.1H197.3z"/>
<circle class="st10" cx="154.5" cy="249.7" r="7.6"/>
<path class="st4" d="M219,267.6c-0.2,0-0.4-0.1-0.4-0.3l-13-55c-0.1-0.2,0.1-0.4,0.3-0.5s0.4,0.1,0.4,0.3l13,55
	C219.4,267.3,219.2,267.5,219,267.6L219,267.6z"/>
<path class="st12" d="M430.9,289.4h-391c-0.7,0-1.3-0.7-1.3-1.5v-2.5c0-0.8,0.6-1.5,1.3-1.5h391c0.7,0,1.3,0.7,1.3,1.5v2.5
	C432.2,288.7,431.6,289.4,430.9,289.4z"/>
<polygon class="st0" points="381.1,245.7 380.8,249 380.3,254.7 380.2,255.7 379.8,260.5 379.3,265.8 379.3,266 378.8,272 
	378.3,277.3 377.7,283.9 359.4,283.9 359.2,282.4 358.7,276 358.3,272.1 357.8,265.8 357.8,265.7 357.4,261.8 356.9,255.7 
	356.9,255.3 356.6,251.5 356,245.7 "/>
<polygon class="st4" points="380.2,255.7 379.8,260.5 379.3,265.8 357.8,265.8 357.8,265.7 357.4,261.8 356.9,255.7 "/>
<rect x="354.8" y="240.8" class="st13" width="27.6" height="4.9"/>
<path class="st0" d="M358.3,236.6h20.5c0.8,0,1.5,0.7,1.5,1.5v2.7l0,0h-23.5l0,0v-2.7C356.8,237.3,357.5,236.6,358.3,236.6z"/>
<path class="st8" d="M408.8,250.4c-0.6,0.5-1.3,0.8-2.1,0.8h-1.5c-0.7-0.1-1.4-0.3-2-0.7c0,0,0.3-14-5.4-23.6s-13.1-22.9-7.1-29.7
	s15.6,2.6,18.8,18.6S408.8,250.4,408.8,250.4z"/>
<path class="st9" d="M406.7,251.2h-1.5c1.8-24.8-9.4-44-9.6-44.2c-0.2-0.3-0.1-0.8,0.2-1c0,0,0,0,0.1,0c0.3-0.2,0.8-0.1,1,0.2
	c0,0,0,0,0,0.1C404.3,220.1,407.7,235.6,406.7,251.2z"/>
<path class="st8" d="M428.2,227.9c-13.2,21.3-12.3,26.3-12.3,26.3l-1.8-0.3l-1.4-0.3l-2.1-0.4c-1.2-9.4,6.1-49.5,19-49.5
	S432.7,220.6,428.2,227.9z"/>
<path class="st9" d="M427.7,215.6c-0.1,0.2-11.2,19.9-13.6,38.3l-1.4-0.3c2.4-18.6,13.6-38.5,13.7-38.8c0.2-0.3,0.7-0.4,1-0.2
	C427.8,214.8,427.9,215.2,427.7,215.6C427.8,215.6,427.7,215.6,427.7,215.6z"/>
<path class="st8" d="M399.1,253.4L399.1,253.4z"/>
<path class="st8" d="M403,252.3l-1.5,0.4l-1.4,0.4l-0.9,0.2c0-0.1-0.6-1.8-9.9-14.2c-3.9-5.1-14.1-18.9-4.7-21.3
	S403.3,245.2,403,252.3z"/>
<path class="st9" d="M401.5,252.7l-1.4,0.4c-2.7-12-13.6-26.7-13.7-26.8c-0.3-0.3-0.2-0.8,0.1-1.1c0.4-0.2,0.8-0.1,1.1,0.2
	C388.1,226,398.8,240.5,401.5,252.7z"/>
<path class="st0" d="M421.4,249.1v34.8h-29.5v-34.8c0-0.6,0.4-1,1-1h27.5C421,248.1,421.4,248.5,421.4,249.1z"/>
<rect x="391.9" y="251.3" class="st13" width="29.6" height="0.9"/>
<rect x="391.9" y="256.2" class="st13" width="29.6" height="0.8"/>
<rect x="391.9" y="275.7" class="st13" width="29.6" height="0.9"/>
<rect x="391.9" y="280.5" class="st13" width="29.6" height="0.9"/>
<g>
	<g>
		<path class="st14" d="M169,81.5c-3.3-3.3-8.8-3.3-12.1,0l-6.5,6.5c2.2-0.6,4.7-0.5,6.8,0.5l3.4-3.4c1.3-1.3,3.5-1.3,4.8,0
			s1.3,3.5,0,4.8l-4.3,4.3l-2.8,2.8c-1.3,1.3-3.5,1.3-4.8,0l-3.6,3.6c0.8,0.8,1.8,1.5,2.9,1.9c2.8,1.1,6,0.7,8.5-1.2
			c0.2-0.2,0.5-0.4,0.7-0.6l4.4-4.4l2.7-2.7C172.4,90.2,172.4,84.8,169,81.5z"/>
		<path class="st14" d="M151.7,103.6l-3.2,3.2c-1.3,1.3-3.5,1.3-4.8,0c-1.3-1.3-1.3-3.5,0-4.8l7.1-7.1c1.3-1.3,3.5-1.3,4.8,0
			l3.6-3.6c-0.8-0.8-1.8-1.5-2.9-1.9c-2.9-1.2-6.4-0.6-8.9,1.6c-0.1,0.1-0.2,0.2-0.3,0.3l-7.1,7.1c-3.3,3.3-3.3,8.8,0,12.1
			c3.3,3.3,8.8,3.3,12.1,0l6.4-6.4C155.2,104.8,154.5,104.7,151.7,103.6z"/>
	</g>
</g>
</svg>
